<svg version="1.1" xmlns="http://www.w3.org/2000/svg" width="600" height="400"><defs><clipPath id="mGorgkXScAkV"><path fill="none" stroke="none" d="M 55.5 27.5 L 595.5 27.5 L 595.5 343.5 L 55.5 343.5 L 55.5 27.5"/></clipPath><clipPath id="tUvQhqLCarKb"><path fill="none" stroke="none" d="M 55.5 27.5 L 595.5 27.5 L 595.5 343.5 L 55.5 343.5 L 55.5 27.5"/></clipPath><clipPath id="cVZOHCMIyvFy"><path fill="none" stroke="none" d="M 55.5 27.5 L 595.5 27.5 L 595.5 343.5 L 55.5 343.5 L 55.5 27.5"/></clipPath><clipPath id="phREgmxOfGLH"><path fill="none" stroke="none" d="M 55.5 27.5 L 595.5 27.5 L 595.5 343.5 L 55.5 343.5 L 55.5 27.5"/></clipPath><clipPath id="PzdTszSsWOKu"><path fill="none" stroke="none" d="M 55.5 27.5 L 595.5 27.5 L 595.5 343.5 L 55.5 343.5 L 55.5 27.5"/></clipPath><clipPath id="whVFOyzVTirf"><path fill="none" stroke="none" d="M 55.5 27.5 L 595.5 27.5 L 595.5 343.5 L 55.5 343.5 L 55.5 27.5"/></clipPath><clipPath id="wqQkZBtioCIp"><path fill="none" stroke="none" d="M 55.5 27.5 L 595.5 27.5 L 595.5 343.5 L 55.5 343.5 L 55.5 27.5"/></clipPath><clipPath id="hnXObyTJsnTI"><path fill="none" stroke="none" d="M 55.5 27.5 L 595.5 27.5 L 595.5 343.5 L 55.5 343.5 L 55.5 27.5"/></clipPath><clipPath id="IunTuUmwyOMI"><path fill="none" stroke="none" d="M 55.5 27.5 L 595.5 27.5 L 595.5 343.5 L 55.5 343.5 L 55.5 27.5"/></clipPath><clipPath id="GZXzSRTtnqUm"><path fill="none" stroke="none" d="M 55.5 27.5 L 595.5 27.5 L 595.5 343.5 L 55.5 343.5 L 55.5 27.5"/></clipPath><clipPath id="wssKdGwuPzuh"><path fill="none" stroke="none" d="M 55.5 27.5 L 595.5 27.5 L 595.5 343.5 L 55.5 343.5 L 55.5 27.5"/></clipPath><clipPath id="qsRfVFAfkHHV"><path fill="none" stroke="none" d="M 55.5 27.5 L 595.5 27.5 L 595.5 343.5 L 55.5 343.5 L 55.5 27.5"/></clipPath></defs><path fill="rgb(255,255,255)" stroke="none" paint-order="stroke" d="M 0.5 0.5 L 600.5 0.5 L 600.5 400.5 L 0.5 400.5 L 0.5 0.5" fill-opacity="1"/><rect fill="#FFFFFF" stroke="none" x="55" y="27" width="540" height="316" transform="matrix(1, 0, 0, 1, 0.5, 0.5)"/><path fill="rgb(255,255,255)" stroke="none" paint-order="stroke" d="M 55.5 27.5 L 595.5 27.5 L 595.5 343.5 L 55.5 343.5 L 55.5 27.5" fill-opacity="1"/><path fill="none" stroke="rgb(229,229,229)" paint-order="fill" d="M 55.5 27.5 L 595.5 27.5 L 595.5 343.5 L 55.5 343.5 L 55.5 27.5" stroke-opacity="1" stroke-linejoin="bevel" stroke-miterlimit="10" stroke-dasharray=""/><path fill="none" stroke="rgb(229,229,229)" paint-order="fill" d="M 55.5 329.5 L 595.5 329.5 M 55.5 253.5 L 595.5 253.5 M 55.5 178.5 L 595.5 178.5 M 55.5 103.5 L 595.5 103.5 M 55.5 28.5 L 595.5 28.5" stroke-opacity="1" stroke-linejoin="bevel" stroke-miterlimit="10" stroke-dasharray="" clip-path="url(#tUvQhqLCarKb)"/><path fill="rgb(82,84,163)" stroke="rgb(82,84,163)" paint-order="fill" d="M 110.72727966308594 263.43756103515625 L 147.5454559326172 263.43756103515625 L 147.5454559326172 329.1363525390625 L 110.72727966308594 329.1363525390625 L 110.72727966308594 263.43756103515625" fill-opacity="1" clip-path="url(#cVZOHCMIyvFy)" stroke-opacity="1" stroke-linejoin="bevel" stroke-miterlimit="10" stroke-dasharray=""/><path fill="rgb(82,84,163)" stroke="rgb(82,84,163)" paint-order="fill" d="M 356.18182373046875 299.7975769042969 L 393 299.7975769042969 L 393 329.1363525390625 L 356.18182373046875 329.1363525390625 L 356.18182373046875 299.7975769042969" fill-opacity="1" clip-path="url(#cVZOHCMIyvFy)" stroke-opacity="1" stroke-linejoin="bevel" stroke-miterlimit="10" stroke-dasharray=""/><path fill="rgb(140,162,82)" stroke="rgb(140,162,82)" paint-order="fill" d="M 147.5454559326172 231.46583557128906 L 184.36363220214844 231.46583557128906 L 184.36363220214844 329.1363525390625 L 147.5454559326172 329.1363525390625 L 147.5454559326172 231.46583557128906" fill-opacity="1" clip-path="url(#phREgmxOfGLH)" stroke-opacity="1" stroke-linejoin="bevel" stroke-miterlimit="10" stroke-dasharray=""/><path fill="rgb(140,162,82)" stroke="rgb(140,162,82)" paint-order="fill" d="M 393 109.22095489501953 L 429.81817626953125 109.22095489501953 L 429.81817626953125 329.1363525390625 L 393 329.1363525390625 L 393 109.22095489501953" fill-opacity="1" clip-path="url(#phREgmxOfGLH)" stroke-opacity="1" stroke-linejoin="bevel" stroke-miterlimit="10" stroke-dasharray=""/><path fill="rgb(189,158,57)" stroke="rgb(189,158,57)" paint-order="fill" d="M 184.36363220214844 200.3717498779297 L 221.1818084716797 200.3717498779297 L 221.1818084716797 329.1363525390625 L 184.36363220214844 329.1363525390625 L 184.36363220214844 200.3717498779297" fill-opacity="1" clip-path="url(#PzdTszSsWOKu)" stroke-opacity="1" stroke-linejoin="bevel" stroke-miterlimit="10" stroke-dasharray=""/><path fill="rgb(189,158,57)" stroke="rgb(189,158,57)" paint-order="fill" d="M 429.81817626953125 280.4891662597656 L 466.6363525390625 280.4891662597656 L 466.6363525390625 329.1363525390625 L 429.81817626953125 329.1363525390625 L 429.81817626953125 280.4891662597656" fill-opacity="1" clip-path="url(#PzdTszSsWOKu)" stroke-opacity="1" stroke-linejoin="bevel" stroke-miterlimit="10" stroke-dasharray=""/><path fill="rgb(173,73,74)" stroke="rgb(173,73,74)" paint-order="fill" d="M 221.1818084716797 273.656005859375 L 258 273.656005859375 L 258 329.1363525390625 L 221.1818084716797 329.1363525390625 L 221.1818084716797 273.656005859375" fill-opacity="1" clip-path="url(#whVFOyzVTirf)" stroke-opacity="1" stroke-linejoin="bevel" stroke-miterlimit="10" stroke-dasharray=""/><path fill="rgb(173,73,74)" stroke="rgb(173,73,74)" paint-order="fill" d="M 466.6363525390625 239.05128479003906 L 503.45452880859375 239.05128479003906 L 503.45452880859375 329.1363525390625 L 466.6363525390625 329.1363525390625 L 466.6363525390625 239.05128479003906" fill-opacity="1" clip-path="url(#whVFOyzVTirf)" stroke-opacity="1" stroke-linejoin="bevel" stroke-miterlimit="10" stroke-dasharray=""/><path fill="rgb(0,0,0)" stroke="rgb(0,0,0)" paint-order="fill" d="M 127.90909576416016 237.97042846679688 L 130.3636474609375 237.97042846679688 L 130.3636474609375 288.90472412109375 L 127.90909576416016 288.90472412109375 L 127.90909576416016 237.97042846679688" fill-opacity="1" clip-path="url(#wqQkZBtioCIp)" stroke-opacity="1" stroke-linejoin="bevel" stroke-miterlimit="10" stroke-dasharray=""/><path fill="rgb(0,0,0)" stroke="rgb(0,0,0)" paint-order="fill" d="M 373.3636474609375 287.3187255859375 L 375.81817626953125 287.3187255859375 L 375.81817626953125 312.2764587402344 L 373.3636474609375 312.2764587402344 L 373.3636474609375 287.3187255859375" fill-opacity="1" clip-path="url(#wqQkZBtioCIp)" stroke-opacity="1" stroke-linejoin="bevel" stroke-miterlimit="10" stroke-dasharray=""/><path fill="rgb(0,0,0)" stroke="rgb(0,0,0)" paint-order="fill" d="M 164.72726440429688 190.59947204589844 L 167.18182373046875 190.59947204589844 L 167.18182373046875 272.33221435546875 L 164.72726440429688 272.33221435546875 L 164.72726440429688 190.59947204589844" fill-opacity="1" clip-path="url(#hnXObyTJsnTI)" stroke-opacity="1" stroke-linejoin="bevel" stroke-miterlimit="10" stroke-dasharray=""/><path fill="rgb(0,0,0)" stroke="rgb(0,0,0)" paint-order="fill" d="M 410.18182373046875 41.8636360168457 L 412.6363525390625 41.8636360168457 L 412.6363525390625 176.57826232910156 L 410.18182373046875 176.57826232910156 L 410.18182373046875 41.8636360168457" fill-opacity="1" clip-path="url(#hnXObyTJsnTI)" stroke-opacity="1" stroke-linejoin="bevel" stroke-miterlimit="10" stroke-dasharray=""/><path fill="rgb(0,0,0)" stroke="rgb(0,0,0)" paint-order="fill" d="M 201.54544067382812 168.5406951904297 L 204 168.5406951904297 L 204 232.2028045654297 L 201.54544067382812 232.2028045654297 L 201.54544067382812 168.5406951904297" fill-opacity="1" clip-path="url(#IunTuUmwyOMI)" stroke-opacity="1" stroke-linejoin="bevel" stroke-miterlimit="10" stroke-dasharray=""/><path fill="rgb(0,0,0)" stroke="rgb(0,0,0)" paint-order="fill" d="M 447 250.8953857421875 L 449.45452880859375 250.8953857421875 L 449.45452880859375 310.08294677734375 L 447 310.08294677734375 L 447 250.8953857421875" fill-opacity="1" clip-path="url(#IunTuUmwyOMI)" stroke-opacity="1" stroke-linejoin="bevel" stroke-miterlimit="10" stroke-dasharray=""/><path fill="rgb(0,0,0)" stroke="rgb(0,0,0)" paint-order="fill" d="M 238.36361694335938 256.5417175292969 L 240.81817626953125 256.5417175292969 L 240.81817626953125 290.770263671875 L 238.36361694335938 290.770263671875 L 238.36361694335938 256.5417175292969" fill-opacity="1" clip-path="url(#GZXzSRTtnqUm)" stroke-opacity="1" stroke-linejoin="bevel" stroke-miterlimit="10" stroke-dasharray=""/><path fill="rgb(0,0,0)" stroke="rgb(0,0,0)" paint-order="fill" d="M 483.81817626953125 178.3049774169922 L 486.272705078125 178.3049774169922 L 486.272705078125 299.7975769042969 L 483.81817626953125 299.7975769042969 L 483.81817626953125 178.3049774169922" fill-opacity="1" clip-path="url(#GZXzSRTtnqUm)" stroke-opacity="1" stroke-linejoin="bevel" stroke-miterlimit="10" stroke-dasharray=""/><path fill="none" stroke="rgb(0,0,0)" paint-order="fill" d="M 55.5 343.5 L 595.5 343.5" stroke-opacity="1" stroke-linejoin="bevel" stroke-miterlimit="10" stroke-dasharray=""/><path fill="none" stroke="rgb(0,0,0)" paint-order="fill" d="M 202.5 349.5 L 202.5 341.5 M 448.5 349.5 L 448.5 341.5" stroke-opacity="1" stroke-linejoin="bevel" stroke-miterlimit="10" stroke-dasharray=""/><path fill="none" stroke="rgb(0,0,0)" paint-order="fill" d="" stroke-opacity="1" stroke-linejoin="bevel" stroke-miterlimit="10" stroke-dasharray=""/><text fill="rgb(68,68,68)" stroke="none" font-family="helvetica" font-size="11px" font-style="normal" font-weight="normal" text-decoration="normal" x="172.61085510253906" y="364" text-anchor="start" dominant-baseline="alphabetic" transform="matrix(1, 0, 0, 1, 0.5, 0.5)" fill-opacity="1">LOC725051</text><text fill="rgb(68,68,68)" stroke="none" font-family="helvetica" font-size="11px" font-style="normal" font-weight="normal" text-decoration="normal" x="418.0653991699219" y="364" text-anchor="start" dominant-baseline="alphabetic" transform="matrix(1, 0, 0, 1, 0.5, 0.5)" fill-opacity="1">LOC724239</text><path fill="none" stroke="rgb(0,0,0)" paint-order="fill" d="M 55.5 343.5 L 55.5 27.5" stroke-opacity="1" stroke-linejoin="bevel" stroke-miterlimit="10" stroke-dasharray=""/><path fill="none" stroke="rgb(0,0,0)" paint-order="fill" d="M 49.5 329.5 L 57.5 329.5 M 49.5 253.5 L 57.5 253.5 M 49.5 178.5 L 57.5 178.5 M 49.5 103.5 L 57.5 103.5 M 49.5 28.5 L 57.5 28.5" stroke-opacity="1" stroke-linejoin="bevel" stroke-miterlimit="10" stroke-dasharray=""/><path fill="none" stroke="rgb(0,0,0)" paint-order="fill" d="M 51.5 329.5 L 55.5 329.5 M 51.5 314.5 L 55.5 314.5 M 51.5 299.5 L 55.5 299.5 M 51.5 283.5 L 55.5 283.5 M 51.5 268.5 L 55.5 268.5 M 51.5 253.5 L 55.5 253.5 M 51.5 238.5 L 55.5 238.5 M 51.5 223.5 L 55.5 223.5 M 51.5 208.5 L 55.5 208.5 M 51.5 193.5 L 55.5 193.5 M 51.5 178.5 L 55.5 178.5 M 51.5 163.5 L 55.5 163.5 M 51.5 148.5 L 55.5 148.5 M 51.5 133.5 L 55.5 133.5 M 51.5 118.5 L 55.5 118.5 M 51.5 103.5 L 55.5 103.5 M 51.5 88.5 L 55.5 88.5 M 51.5 73.5 L 55.5 73.5 M 51.5 58.5 L 55.5 58.5 M 51.5 43.5 L 55.5 43.5 M 51.5 28.5 L 55.5 28.5" stroke-opacity="1" stroke-linejoin="bevel" stroke-miterlimit="10" stroke-dasharray=""/><text fill="rgb(68,68,68)" stroke="none" font-family="helvetica" font-size="11px" font-style="normal" font-weight="normal" text-decoration="normal" x="37.88232421875" y="332.5814208984375" text-anchor="start" dominant-baseline="alphabetic" transform="matrix(1, 0, 0, 1, 0.5, 0.5)" fill-opacity="1">0</text><text fill="rgb(68,68,68)" stroke="none" font-family="helvetica" font-size="11px" font-style="normal" font-weight="normal" text-decoration="normal" x="25.64697265625" y="257.3538055419922" text-anchor="start" dominant-baseline="alphabetic" transform="matrix(1, 0, 0, 1, 0.5, 0.5)" fill-opacity="1">200</text><text fill="rgb(68,68,68)" stroke="none" font-family="helvetica" font-size="11px" font-style="normal" font-weight="normal" text-decoration="normal" x="25.64697265625" y="182.12619018554688" text-anchor="start" dominant-baseline="alphabetic" transform="matrix(1, 0, 0, 1, 0.5, 0.5)" fill-opacity="1">400</text><text fill="rgb(68,68,68)" stroke="none" font-family="helvetica" font-size="11px" font-style="normal" font-weight="normal" text-decoration="normal" x="25.64697265625" y="106.89856719970703" text-anchor="start" dominant-baseline="alphabetic" transform="matrix(1, 0, 0, 1, 0.5, 0.5)" fill-opacity="1">600</text><text fill="rgb(68,68,68)" stroke="none" font-family="helvetica" font-size="11px" font-style="normal" font-weight="normal" text-decoration="normal" x="25.64697265625" y="31.670949935913086" text-anchor="start" dominant-baseline="alphabetic" transform="matrix(1, 0, 0, 1, 0.5, 0.5)" fill-opacity="1">800</text><text fill="rgb(68,68,68)" stroke="none" font-family="helvetica" font-size="13px" font-style="italic" font-weight="normal" text-decoration="normal" x="-30.039794921875" y="182" text-anchor="start" dominant-baseline="alphabetic" transform="matrix(6.123233995736766e-17, -1, 1, 6.123233995736766e-17, -166.85302734375, 203.14697265625)" fill-opacity="1">transcript counts</text><path fill="rgb(255,255,255)" stroke="rgb(229,229,229)" paint-order="fill" d="M 65.5 37.5 L 395.3779296875 37.5 L 395.3779296875 77.5 L 65.5 77.5 L 65.5 37.5" fill-opacity="0.9490196078431372" clip-path="url(#wssKdGwuPzuh)" stroke-opacity="0.5019607843137255" stroke-linejoin="bevel" stroke-miterlimit="10" stroke-dasharray=""/><g clip-path="url(#wssKdGwuPzuh)"><text fill="rgb(68,68,68)" stroke="none" font-family="helvetica" font-size="13px" font-style="normal" font-weight="normal" text-decoration="normal" x="100" y="57" text-anchor="start" dominant-baseline="central" transform="matrix(1, 0, 0, 1, 0.5, 0.5)" fill-opacity="1">control</text></g><path fill="rgb(82,84,163)" stroke="rgb(82,84,163)" paint-order="fill" d="M 77.5 49.5 L 93.5 49.5 L 93.5 65.5 L 77.5 65.5 L 77.5 49.5" fill-opacity="1" clip-path="url(#wssKdGwuPzuh)" stroke-opacity="1" stroke-linejoin="bevel" stroke-miterlimit="10" stroke-dasharray=""/><g clip-path="url(#wssKdGwuPzuh)"><text fill="rgb(68,68,68)" stroke="none" font-family="helvetica" font-size="13px" font-style="normal" font-weight="normal" text-decoration="normal" x="167.01904296875" y="57" text-anchor="start" dominant-baseline="central" transform="matrix(1, 0, 0, 1, 0.5, 0.5)" fill-opacity="1">Nosema</text></g><path fill="rgb(140,162,82)" stroke="rgb(140,162,82)" paint-order="fill" d="M 144.51904296875 49.5 L 160.51904296875 49.5 L 160.51904296875 65.5 L 144.51904296875 65.5 L 144.51904296875 49.5" fill-opacity="1" clip-path="url(#wssKdGwuPzuh)" stroke-opacity="1" stroke-linejoin="bevel" stroke-miterlimit="10" stroke-dasharray=""/><g clip-path="url(#wssKdGwuPzuh)"><text fill="rgb(68,68,68)" stroke="none" font-family="helvetica" font-size="13px" font-style="normal" font-weight="normal" text-decoration="normal" x="243.42626953125" y="57" text-anchor="start" dominant-baseline="central" transform="matrix(1, 0, 0, 1, 0.5, 0.5)" fill-opacity="1">BQCV</text></g><path fill="rgb(189,158,57)" stroke="rgb(189,158,57)" paint-order="fill" d="M 220.92626953125 49.5 L 236.92626953125 49.5 L 236.92626953125 65.5 L 220.92626953125 65.5 L 220.92626953125 49.5" fill-opacity="1" clip-path="url(#wssKdGwuPzuh)" stroke-opacity="1" stroke-linejoin="bevel" stroke-miterlimit="10" stroke-dasharray=""/><g clip-path="url(#wssKdGwuPzuh)"><text fill="rgb(68,68,68)" stroke="none" font-family="helvetica" font-size="13px" font-style="normal" font-weight="normal" text-decoration="normal" x="308.26806640625" y="57" text-anchor="start" dominant-baseline="central" transform="matrix(1, 0, 0, 1, 0.5, 0.5)" fill-opacity="1">dual infection</text></g><path fill="rgb(173,73,74)" stroke="rgb(173,73,74)" paint-order="fill" d="M 285.76806640625 49.5 L 301.76806640625 49.5 L 301.76806640625 65.5 L 285.76806640625 65.5 L 285.76806640625 49.5" fill-opacity="1" clip-path="url(#wssKdGwuPzuh)" stroke-opacity="1" stroke-linejoin="bevel" stroke-miterlimit="10" stroke-dasharray=""/><text fill="rgb(68,68,68)" stroke="none" font-family="helvetica" font-size="13px" font-style="normal" font-weight="bold" text-decoration="normal" x="55" y="19" text-anchor="start" dominant-baseline="alphabetic" transform="matrix(1, 0, 0, 1, 0.5, 0.5)" fill-opacity="1">Expression of hygiene-associated DEA hits</text></svg>