<svg version="1.1" xmlns="http://www.w3.org/2000/svg" width="300" height="400"><defs><clipPath id="eUtMAJHkiIfG"><path fill="none" stroke="none" d="M 45.5 5.5 L 295.5 5.5 L 295.5 343.5 L 45.5 343.5 L 45.5 5.5"/></clipPath><clipPath id="VHSEkmsqcBHl"><path fill="none" stroke="none" d="M 45.5 5.5 L 295.5 5.5 L 295.5 343.5 L 45.5 343.5 L 45.5 5.5"/></clipPath><clipPath id="foDzkRucEkAu"><path fill="none" stroke="none" d="M 45.5 5.5 L 295.5 5.5 L 295.5 343.5 L 45.5 343.5 L 45.5 5.5"/></clipPath><clipPath id="XFmVWyAgMNHn"><path fill="none" stroke="none" d="M 45.5 5.5 L 295.5 5.5 L 295.5 343.5 L 45.5 343.5 L 45.5 5.5"/></clipPath><clipPath id="DsEdRpmDcHwc"><path fill="none" stroke="none" d="M 45.5 5.5 L 295.5 5.5 L 295.5 343.5 L 45.5 343.5 L 45.5 5.5"/></clipPath><clipPath id="pfcmKNuGWsAX"><path fill="none" stroke="none" d="M 45.5 5.5 L 295.5 5.5 L 295.5 343.5 L 45.5 343.5 L 45.5 5.5"/></clipPath><clipPath id="stIgTXPvVKDQ"><path fill="none" stroke="none" d="M 45.5 5.5 L 295.5 5.5 L 295.5 343.5 L 45.5 343.5 L 45.5 5.5"/></clipPath><clipPath id="AfHxXezdJSgG"><path fill="none" stroke="none" d="M 45.5 5.5 L 295.5 5.5 L 295.5 343.5 L 45.5 343.5 L 45.5 5.5"/></clipPath><clipPath id="KOMJZyadLWJi"><path fill="none" stroke="none" d="M 45.5 5.5 L 295.5 5.5 L 295.5 343.5 L 45.5 343.5 L 45.5 5.5"/></clipPath><clipPath id="ZSBgKsCiCJVi"><path fill="none" stroke="none" d="M 45.5 5.5 L 295.5 5.5 L 295.5 343.5 L 45.5 343.5 L 45.5 5.5"/></clipPath><clipPath id="fDFlNqTbAHrq"><path fill="none" stroke="none" d="M 45.5 5.5 L 295.5 5.5 L 295.5 343.5 L 45.5 343.5 L 45.5 5.5"/></clipPath></defs><path fill="rgb(255,255,255)" stroke="none" paint-order="stroke" d="M 0.5 0.5 L 300.5 0.5 L 300.5 400.5 L 0.5 400.5 L 0.5 0.5" fill-opacity="1"/><rect fill="#FFFFFF" stroke="none" x="45" y="5" width="250" height="338" transform="matrix(1, 0, 0, 1, 0.5, 0.5)"/><path fill="rgb(255,255,255)" stroke="none" paint-order="stroke" d="M 45.5 5.5 L 295.5 5.5 L 295.5 343.5 L 45.5 343.5 L 45.5 5.5" fill-opacity="1"/><path fill="none" stroke="rgb(229,229,229)" paint-order="fill" d="M 45.5 5.5 L 295.5 5.5 L 295.5 343.5 L 45.5 343.5 L 45.5 5.5" stroke-opacity="1" stroke-linejoin="bevel" stroke-miterlimit="10" stroke-dasharray=""/><path fill="none" stroke="rgb(229,229,229)" paint-order="fill" d="M 45.5 328.5 L 295.5 328.5 M 45.5 281.5 L 295.5 281.5 M 45.5 234.5 L 295.5 234.5 M 45.5 187.5 L 295.5 187.5 M 45.5 140.5 L 295.5 140.5 M 45.5 93.5 L 295.5 93.5 M 45.5 46.5 L 295.5 46.5" stroke-opacity="1" stroke-linejoin="bevel" stroke-miterlimit="10" stroke-dasharray="" clip-path="url(#VHSEkmsqcBHl)"/><path fill="rgb(82,84,163)" stroke="rgb(82,84,163)" paint-order="fill" d="M 85.2727279663086 208.3155059814453 L 119.36363983154297 208.3155059814453 L 119.36363983154297 328.1363525390625 L 85.2727279663086 328.1363525390625 L 85.2727279663086 208.3155059814453" fill-opacity="1" clip-path="url(#foDzkRucEkAu)" stroke-opacity="1" stroke-linejoin="bevel" stroke-miterlimit="10" stroke-dasharray=""/><path fill="rgb(140,162,82)" stroke="rgb(140,162,82)" paint-order="fill" d="M 119.36363220214844 100.17666625976562 L 153.4545440673828 100.17666625976562 L 153.4545440673828 328.1363525390625 L 119.36363220214844 328.1363525390625 L 119.36363220214844 100.17666625976562" fill-opacity="1" clip-path="url(#XFmVWyAgMNHn)" stroke-opacity="1" stroke-linejoin="bevel" stroke-miterlimit="10" stroke-dasharray=""/><path fill="rgb(189,158,57)" stroke="rgb(189,158,57)" paint-order="fill" d="M 153.4545440673828 234.35125732421875 L 187.5454559326172 234.35125732421875 L 187.5454559326172 328.1363525390625 L 153.4545440673828 328.1363525390625 L 153.4545440673828 234.35125732421875" fill-opacity="1" clip-path="url(#DsEdRpmDcHwc)" stroke-opacity="1" stroke-linejoin="bevel" stroke-miterlimit="10" stroke-dasharray=""/><path fill="rgb(173,73,74)" stroke="rgb(173,73,74)" paint-order="fill" d="M 187.54544067382812 115.3687515258789 L 221.6363525390625 115.3687515258789 L 221.6363525390625 328.1363525390625 L 187.54544067382812 328.1363525390625 L 187.54544067382812 115.3687515258789" fill-opacity="1" clip-path="url(#pfcmKNuGWsAX)" stroke-opacity="1" stroke-linejoin="bevel" stroke-miterlimit="10" stroke-dasharray=""/><path fill="rgb(0,0,0)" stroke="rgb(0,0,0)" paint-order="fill" d="M 101.18182373046875 163.2917022705078 L 103.45454406738281 163.2917022705078 L 103.45454406738281 253.33932495117188 L 101.18182373046875 253.33932495117188 L 101.18182373046875 163.2917022705078" fill-opacity="1" clip-path="url(#stIgTXPvVKDQ)" stroke-opacity="1" stroke-linejoin="bevel" stroke-miterlimit="10" stroke-dasharray=""/><path fill="rgb(0,0,0)" stroke="rgb(0,0,0)" paint-order="fill" d="M 135.27272033691406 20.863636016845703 L 137.5454559326172 20.863636016845703 L 137.5454559326172 179.48968505859375 L 135.27272033691406 179.48968505859375 L 135.27272033691406 20.863636016845703" fill-opacity="1" clip-path="url(#AfHxXezdJSgG)" stroke-opacity="1" stroke-linejoin="bevel" stroke-miterlimit="10" stroke-dasharray=""/><path fill="rgb(0,0,0)" stroke="rgb(0,0,0)" paint-order="fill" d="M 169.36363220214844 190.24842834472656 L 171.63636779785156 190.24842834472656 L 171.63636779785156 278.4541015625 L 169.36363220214844 278.4541015625 L 169.36363220214844 190.24842834472656" fill-opacity="1" clip-path="url(#KOMJZyadLWJi)" stroke-opacity="1" stroke-linejoin="bevel" stroke-miterlimit="10" stroke-dasharray=""/><path fill="rgb(0,0,0)" stroke="rgb(0,0,0)" paint-order="fill" d="M 203.45452880859375 53.691532135009766 L 205.72726440429688 53.691532135009766 L 205.72726440429688 177.0459747314453 L 203.45452880859375 177.0459747314453 L 203.45452880859375 53.691532135009766" fill-opacity="1" clip-path="url(#ZSBgKsCiCJVi)" stroke-opacity="1" stroke-linejoin="bevel" stroke-miterlimit="10" stroke-dasharray=""/><path fill="none" stroke="rgb(0,0,0)" paint-order="fill" d="M 45.5 343.5 L 295.5 343.5" stroke-opacity="1" stroke-linejoin="bevel" stroke-miterlimit="10" stroke-dasharray=""/><path fill="none" stroke="rgb(0,0,0)" paint-order="fill" d="M 170.5 349.5 L 170.5 341.5" stroke-opacity="1" stroke-linejoin="bevel" stroke-miterlimit="10" stroke-dasharray=""/><path fill="none" stroke="rgb(0,0,0)" paint-order="fill" d="" stroke-opacity="1" stroke-linejoin="bevel" stroke-miterlimit="10" stroke-dasharray=""/><text fill="rgb(68,68,68)" stroke="none" font-family="helvetica" font-size="11px" font-style="normal" font-weight="normal" text-decoration="normal" x="140.338134765625" y="364" text-anchor="start" dominant-baseline="alphabetic" transform="matrix(1, 0, 0, 1, 0.5, 0.5)" fill-opacity="1">LOC410087</text><path fill="none" stroke="rgb(0,0,0)" paint-order="fill" d="M 45.5 343.5 L 45.5 5.5" stroke-opacity="1" stroke-linejoin="bevel" stroke-miterlimit="10" stroke-dasharray=""/><path fill="none" stroke="rgb(0,0,0)" paint-order="fill" d="M 39.5 328.5 L 47.5 328.5 M 39.5 281.5 L 47.5 281.5 M 39.5 234.5 L 47.5 234.5 M 39.5 187.5 L 47.5 187.5 M 39.5 140.5 L 47.5 140.5 M 39.5 93.5 L 47.5 93.5 M 39.5 46.5 L 47.5 46.5" stroke-opacity="1" stroke-linejoin="bevel" stroke-miterlimit="10" stroke-dasharray=""/><path fill="none" stroke="rgb(0,0,0)" paint-order="fill" d="M 41.5 337.5 L 45.5 337.5 M 41.5 328.5 L 45.5 328.5 M 41.5 318.5 L 45.5 318.5 M 41.5 309.5 L 45.5 309.5 M 41.5 299.5 L 45.5 299.5 M 41.5 290.5 L 45.5 290.5 M 41.5 281.5 L 45.5 281.5 M 41.5 271.5 L 45.5 271.5 M 41.5 262.5 L 45.5 262.5 M 41.5 252.5 L 45.5 252.5 M 41.5 243.5 L 45.5 243.5 M 41.5 234.5 L 45.5 234.5 M 41.5 224.5 L 45.5 224.5 M 41.5 215.5 L 45.5 215.5 M 41.5 205.5 L 45.5 205.5 M 41.5 196.5 L 45.5 196.5 M 41.5 187.5 L 45.5 187.5 M 41.5 177.5 L 45.5 177.5 M 41.5 168.5 L 45.5 168.5 M 41.5 158.5 L 45.5 158.5 M 41.5 149.5 L 45.5 149.5 M 41.5 140.5 L 45.5 140.5 M 41.5 130.5 L 45.5 130.5 M 41.5 121.5 L 45.5 121.5 M 41.5 111.5 L 45.5 111.5 M 41.5 102.5 L 45.5 102.5 M 41.5 93.5 L 45.5 93.5 M 41.5 83.5 L 45.5 83.5 M 41.5 74.5 L 45.5 74.5 M 41.5 64.5 L 45.5 64.5 M 41.5 55.5 L 45.5 55.5 M 41.5 46.5 L 45.5 46.5 M 41.5 36.5 L 45.5 36.5 M 41.5 27.5 L 45.5 27.5 M 41.5 17.5 L 45.5 17.5 M 41.5 8.5 L 45.5 8.5" stroke-opacity="1" stroke-linejoin="bevel" stroke-miterlimit="10" stroke-dasharray=""/><text fill="rgb(68,68,68)" stroke="none" font-family="helvetica" font-size="11px" font-style="normal" font-weight="normal" text-decoration="normal" x="27.88232421875" y="331.5814208984375" text-anchor="start" dominant-baseline="alphabetic" transform="matrix(1, 0, 0, 1, 0.5, 0.5)" fill-opacity="1">0</text><text fill="rgb(68,68,68)" stroke="none" font-family="helvetica" font-size="11px" font-style="normal" font-weight="normal" text-decoration="normal" x="9.529296875" y="284.57135009765625" text-anchor="start" dominant-baseline="alphabetic" transform="matrix(1, 0, 0, 1, 0.5, 0.5)" fill-opacity="1">2000</text><text fill="rgb(68,68,68)" stroke="none" font-family="helvetica" font-size="11px" font-style="normal" font-weight="normal" text-decoration="normal" x="9.529296875" y="237.561279296875" text-anchor="start" dominant-baseline="alphabetic" transform="matrix(1, 0, 0, 1, 0.5, 0.5)" fill-opacity="1">4000</text><text fill="rgb(68,68,68)" stroke="none" font-family="helvetica" font-size="11px" font-style="normal" font-weight="normal" text-decoration="normal" x="9.529296875" y="190.5511932373047" text-anchor="start" dominant-baseline="alphabetic" transform="matrix(1, 0, 0, 1, 0.5, 0.5)" fill-opacity="1">6000</text><text fill="rgb(68,68,68)" stroke="none" font-family="helvetica" font-size="11px" font-style="normal" font-weight="normal" text-decoration="normal" x="9.529296875" y="143.54112243652344" text-anchor="start" dominant-baseline="alphabetic" transform="matrix(1, 0, 0, 1, 0.5, 0.5)" fill-opacity="1">8000</text><text fill="rgb(68,68,68)" stroke="none" font-family="helvetica" font-size="11px" font-style="normal" font-weight="normal" text-decoration="normal" x="3.41162109375" y="96.53104400634766" text-anchor="start" dominant-baseline="alphabetic" transform="matrix(1, 0, 0, 1, 0.5, 0.5)" fill-opacity="1">10000</text><text fill="rgb(68,68,68)" stroke="none" font-family="helvetica" font-size="11px" font-style="normal" font-weight="normal" text-decoration="normal" x="3.41162109375" y="49.52096939086914" text-anchor="start" dominant-baseline="alphabetic" transform="matrix(1, 0, 0, 1, 0.5, 0.5)" fill-opacity="1">12000</text></svg>