<svg version="1.1" xmlns="http://www.w3.org/2000/svg" width="500" height="500"><defs><clipPath id="NngWoxZlUeDr"><path fill="none" stroke="none" d="M 29.5 27.5 L 470.5 27.5 L 470.5 471.5 L 29.5 471.5 L 29.5 27.5"/></clipPath><clipPath id="LhUgORaoxPht"><path fill="none" stroke="none" d="M 29.5 27.5 L 470.5 27.5 L 470.5 471.5 L 29.5 471.5 L 29.5 27.5"/></clipPath><clipPath id="GsRWASBkAzET"><path fill="none" stroke="none" d="M 29.5 27.5 L 470.5 27.5 L 470.5 471.5 L 29.5 471.5 L 29.5 27.5"/></clipPath><clipPath id="maeaUCrAfOOv"><path fill="none" stroke="none" d="M 29.5 27.5 L 470.5 27.5 L 470.5 471.5 L 29.5 471.5 L 29.5 27.5"/></clipPath><clipPath id="pJKwfwXBIqiU"><path fill="none" stroke="none" d="M 29.5 27.5 L 470.5 27.5 L 470.5 471.5 L 29.5 471.5 L 29.5 27.5"/></clipPath><clipPath id="aRWzsoOVQLxS"><path fill="none" stroke="none" d="M 29.5 27.5 L 470.5 27.5 L 470.5 471.5 L 29.5 471.5 L 29.5 27.5"/></clipPath><clipPath id="vKpnfBVFWgLA"><path fill="none" stroke="none" d="M 29.5 27.5 L 470.5 27.5 L 470.5 471.5 L 29.5 471.5 L 29.5 27.5"/></clipPath><clipPath id="luzKmcocBVbA"><path fill="none" stroke="none" d="M 29.5 27.5 L 470.5 27.5 L 470.5 471.5 L 29.5 471.5 L 29.5 27.5"/></clipPath><clipPath id="QmAAoCNsiWtr"><path fill="none" stroke="none" d="M 29.5 27.5 L 470.5 27.5 L 470.5 471.5 L 29.5 471.5 L 29.5 27.5"/></clipPath><clipPath id="IfPVsJiJcmZL"><path fill="none" stroke="none" d="M 29.5 27.5 L 470.5 27.5 L 470.5 471.5 L 29.5 471.5 L 29.5 27.5"/></clipPath><clipPath id="dCQPDmixNbHN"><path fill="none" stroke="none" d="M 29.5 27.5 L 470.5 27.5 L 470.5 471.5 L 29.5 471.5 L 29.5 27.5"/></clipPath><clipPath id="JcBstDiidXxC"><path fill="none" stroke="none" d="M 29.5 27.5 L 470.5 27.5 L 470.5 471.5 L 29.5 471.5 L 29.5 27.5"/></clipPath><clipPath id="fACXsAuJmwGm"><path fill="none" stroke="none" d="M 29.5 27.5 L 470.5 27.5 L 470.5 471.5 L 29.5 471.5 L 29.5 27.5"/></clipPath><clipPath id="CleaQctZcfRi"><path fill="none" stroke="none" d="M 29.5 27.5 L 470.5 27.5 L 470.5 471.5 L 29.5 471.5 L 29.5 27.5"/></clipPath><clipPath id="eAvJGlguXyxu"><path fill="none" stroke="none" d="M 29.5 27.5 L 470.5 27.5 L 470.5 471.5 L 29.5 471.5 L 29.5 27.5"/></clipPath></defs><path fill="rgb(255,255,255)" stroke="none" paint-order="stroke" d="M 0.5 0.5 L 500.5 0.5 L 500.5 500.5 L 0.5 500.5 L 0.5 0.5" fill-opacity="1"/><rect fill="#FFFFFF" stroke="none" x="29" y="27" width="441" height="444" transform="matrix(1, 0, 0, 1, 0.5, 0.5)"/><path fill="rgb(255,255,255)" stroke="none" paint-order="stroke" d="M 29.5 27.5 L 470.5 27.5 L 470.5 471.5 L 29.5 471.5 L 29.5 27.5" fill-opacity="1"/><path fill="none" stroke="rgb(229,229,229)" paint-order="fill" d="M 29.5 27.5 L 470.5 27.5 L 470.5 471.5 L 29.5 471.5 L 29.5 27.5" stroke-opacity="1" stroke-linejoin="bevel" stroke-miterlimit="10" stroke-dasharray=""/><path fill="none" stroke="rgb(229,229,229)" paint-order="fill" d="M 74.5 471.5 L 74.5 27.5 M 158.5 471.5 L 158.5 27.5 M 243.5 471.5 L 243.5 27.5 M 327.5 471.5 L 327.5 27.5 M 412.5 471.5 L 412.5 27.5" stroke-opacity="1" stroke-linejoin="bevel" stroke-miterlimit="10" stroke-dasharray="" clip-path="url(#NngWoxZlUeDr)"/><path fill="none" stroke="rgb(229,229,229)" paint-order="fill" d="M 29.5 404.5 L 470.5 404.5 M 29.5 335.5 L 470.5 335.5 M 29.5 265.5 L 470.5 265.5 M 29.5 196.5 L 470.5 196.5 M 29.5 126.5 L 470.5 126.5 M 29.5 57.5 L 470.5 57.5" stroke-opacity="1" stroke-linejoin="bevel" stroke-miterlimit="10" stroke-dasharray="" clip-path="url(#LhUgORaoxPht)"/><path fill="rgb(82,84,163)" stroke="rgb(82,84,163)" paint-order="fill" d="M 125.323486328125 47.681819915771484 A 5 5 0 0 1 115.323486328125 47.681819915771484 A 5 5 0 0 1 125.323486328125 47.681819915771484" fill-opacity="1" clip-path="url(#GsRWASBkAzET)" stroke-opacity="1" stroke-linejoin="bevel" stroke-miterlimit="10" stroke-dasharray=""/><path fill="rgb(82,84,163)" stroke="rgb(82,84,163)" paint-order="fill" d="M 455.3506164550781 284.18255615234375 A 5 5 0 0 1 445.3506164550781 284.18255615234375 A 5 5 0 0 1 455.3506164550781 284.18255615234375" fill-opacity="1" clip-path="url(#maeaUCrAfOOv)" stroke-opacity="1" stroke-linejoin="bevel" stroke-miterlimit="10" stroke-dasharray=""/><path fill="rgb(82,84,163)" stroke="rgb(82,84,163)" paint-order="fill" d="M 97.04771423339844 386.4258117675781 A 5 5 0 0 1 87.04771423339844 386.4258117675781 A 5 5 0 0 1 97.04771423339844 386.4258117675781" fill-opacity="1" clip-path="url(#pJKwfwXBIqiU)" stroke-opacity="1" stroke-linejoin="bevel" stroke-miterlimit="10" stroke-dasharray=""/><path fill="rgb(140,162,82)" stroke="rgb(140,162,82)" paint-order="fill" d="M 201.9855499267578 84.79373931884766 A 5 5 0 0 1 191.9855499267578 84.79373931884766 A 5 5 0 0 1 201.9855499267578 84.79373931884766" fill-opacity="1" clip-path="url(#aRWzsoOVQLxS)" stroke-opacity="1" stroke-linejoin="bevel" stroke-miterlimit="10" stroke-dasharray=""/><path fill="rgb(140,162,82)" stroke="rgb(140,162,82)" paint-order="fill" d="M 137.75869750976562 229.40858459472656 A 5 5 0 0 1 127.75869750976562 229.40858459472656 A 5 5 0 0 1 137.75869750976562 229.40858459472656" fill-opacity="1" clip-path="url(#vKpnfBVFWgLA)" stroke-opacity="1" stroke-linejoin="bevel" stroke-miterlimit="10" stroke-dasharray=""/><path fill="rgb(140,162,82)" stroke="rgb(140,162,82)" paint-order="fill" d="M 54.54545593261719 298.6012878417969 A 5 5 0 0 1 44.54545593261719 298.6012878417969 A 5 5 0 0 1 54.54545593261719 298.6012878417969" fill-opacity="1" clip-path="url(#luzKmcocBVbA)" stroke-opacity="1" stroke-linejoin="bevel" stroke-miterlimit="10" stroke-dasharray=""/><path fill="rgb(189,158,57)" stroke="rgb(189,158,57)" paint-order="fill" d="M 392.92608642578125 261.7162170410156 A 5 5 0 0 1 382.92608642578125 261.7162170410156 A 5 5 0 0 1 392.92608642578125 261.7162170410156" fill-opacity="1" clip-path="url(#QmAAoCNsiWtr)" stroke-opacity="1" stroke-linejoin="bevel" stroke-miterlimit="10" stroke-dasharray=""/><path fill="rgb(189,158,57)" stroke="rgb(189,158,57)" paint-order="fill" d="M 359.4652404785156 306.1701965332031 A 5 5 0 0 1 349.4652404785156 306.1701965332031 A 5 5 0 0 1 359.4652404785156 306.1701965332031" fill-opacity="1" clip-path="url(#IfPVsJiJcmZL)" stroke-opacity="1" stroke-linejoin="bevel" stroke-miterlimit="10" stroke-dasharray=""/><path fill="rgb(189,158,57)" stroke="rgb(189,158,57)" paint-order="fill" d="M 131.46133422851562 451.31817626953125 A 5 5 0 0 1 121.46133422851562 451.31817626953125 A 5 5 0 0 1 131.46133422851562 451.31817626953125" fill-opacity="1" clip-path="url(#dCQPDmixNbHN)" stroke-opacity="1" stroke-linejoin="bevel" stroke-miterlimit="10" stroke-dasharray=""/><path fill="rgb(173,73,74)" stroke="rgb(173,73,74)" paint-order="fill" d="M 455.4545593261719 238.3776397705078 A 5 5 0 0 1 445.4545593261719 238.3776397705078 A 5 5 0 0 1 455.4545593261719 238.3776397705078" fill-opacity="1" clip-path="url(#JcBstDiidXxC)" stroke-opacity="1" stroke-linejoin="bevel" stroke-miterlimit="10" stroke-dasharray=""/><path fill="rgb(173,73,74)" stroke="rgb(173,73,74)" paint-order="fill" d="M 320.40484619140625 335.47723388671875 A 5 5 0 0 1 310.40484619140625 335.47723388671875 A 5 5 0 0 1 320.40484619140625 335.47723388671875" fill-opacity="1" clip-path="url(#fACXsAuJmwGm)" stroke-opacity="1" stroke-linejoin="bevel" stroke-miterlimit="10" stroke-dasharray=""/><path fill="none" stroke="rgb(0,0,0)" paint-order="fill" d="M 29.5 471.5 L 470.5 471.5" stroke-opacity="1" stroke-linejoin="bevel" stroke-miterlimit="10" stroke-dasharray=""/><path fill="none" stroke="rgb(0,0,0)" paint-order="fill" d="M 57.5 475.5 L 57.5 471.5 M 40.5 475.5 L 40.5 471.5 M 74.5 475.5 L 74.5 471.5 M 91.5 475.5 L 91.5 471.5 M 108.5 475.5 L 108.5 471.5 M 125.5 475.5 L 125.5 471.5 M 141.5 475.5 L 141.5 471.5 M 158.5 475.5 L 158.5 471.5 M 175.5 475.5 L 175.5 471.5 M 192.5 475.5 L 192.5 471.5 M 209.5 475.5 L 209.5 471.5 M 226.5 475.5 L 226.5 471.5 M 243.5 475.5 L 243.5 471.5 M 260.5 475.5 L 260.5 471.5 M 277.5 475.5 L 277.5 471.5 M 294.5 475.5 L 294.5 471.5 M 310.5 475.5 L 310.5 471.5 M 327.5 475.5 L 327.5 471.5 M 344.5 475.5 L 344.5 471.5 M 361.5 475.5 L 361.5 471.5 M 378.5 475.5 L 378.5 471.5 M 395.5 475.5 L 395.5 471.5 M 412.5 475.5 L 412.5 471.5 M 429.5 475.5 L 429.5 471.5 M 446.5 475.5 L 446.5 471.5 M 463.5 475.5 L 463.5 471.5" stroke-opacity="1" stroke-linejoin="bevel" stroke-miterlimit="10" stroke-dasharray=""/><text fill="rgb(68,68,68)" stroke="none" font-family="helvetica" font-size="13px" font-style="italic" font-weight="normal" text-decoration="normal" x="162.06103515625" y="494" text-anchor="start" dominant-baseline="alphabetic" transform="matrix(1, 0, 0, 1, 0.5, 0.5)" fill-opacity="1">PC1 (0.87 explained variance)</text><path fill="none" stroke="rgb(0,0,0)" paint-order="fill" d="M 29.5 471.5 L 29.5 27.5" stroke-opacity="1" stroke-linejoin="bevel" stroke-miterlimit="10" stroke-dasharray=""/><path fill="none" stroke="rgb(0,0,0)" paint-order="fill" d="M 25.5 418.5 L 29.5 418.5 M 25.5 432.5 L 29.5 432.5 M 25.5 446.5 L 29.5 446.5 M 25.5 460.5 L 29.5 460.5 M 25.5 404.5 L 29.5 404.5 M 25.5 391.5 L 29.5 391.5 M 25.5 377.5 L 29.5 377.5 M 25.5 363.5 L 29.5 363.5 M 25.5 349.5 L 29.5 349.5 M 25.5 335.5 L 29.5 335.5 M 25.5 321.5 L 29.5 321.5 M 25.5 307.5 L 29.5 307.5 M 25.5 293.5 L 29.5 293.5 M 25.5 279.5 L 29.5 279.5 M 25.5 265.5 L 29.5 265.5 M 25.5 251.5 L 29.5 251.5 M 25.5 238.5 L 29.5 238.5 M 25.5 224.5 L 29.5 224.5 M 25.5 210.5 L 29.5 210.5 M 25.5 196.5 L 29.5 196.5 M 25.5 182.5 L 29.5 182.5 M 25.5 168.5 L 29.5 168.5 M 25.5 154.5 L 29.5 154.5 M 25.5 140.5 L 29.5 140.5 M 25.5 126.5 L 29.5 126.5 M 25.5 112.5 L 29.5 112.5 M 25.5 98.5 L 29.5 98.5 M 25.5 84.5 L 29.5 84.5 M 25.5 71.5 L 29.5 71.5 M 25.5 57.5 L 29.5 57.5 M 25.5 43.5 L 29.5 43.5 M 25.5 29.5 L 29.5 29.5" stroke-opacity="1" stroke-linejoin="bevel" stroke-miterlimit="10" stroke-dasharray=""/><text fill="rgb(68,68,68)" stroke="none" font-family="helvetica" font-size="13px" font-style="italic" font-weight="normal" text-decoration="normal" x="-69.43896484375" y="246" text-anchor="start" dominant-baseline="alphabetic" transform="matrix(6.123233995736766e-17, -1, 1, 6.123233995736766e-17, -230.5, 267.5)" fill-opacity="1">PC2 (0.03 explained variance)</text><path fill="rgb(255,255,255)" stroke="rgb(229,229,229)" paint-order="fill" d="M 367.0927734375 37.5 L 460.5 37.5 L 460.5 146.5 L 367.0927734375 146.5 L 367.0927734375 37.5" fill-opacity="0.9490196078431372" clip-path="url(#CleaQctZcfRi)" stroke-opacity="0.5019607843137255" stroke-linejoin="bevel" stroke-miterlimit="10" stroke-dasharray=""/><g clip-path="url(#CleaQctZcfRi)"><text fill="rgb(68,68,68)" stroke="none" font-family="helvetica" font-size="13px" font-style="normal" font-weight="normal" text-decoration="normal" x="401.5927734375" y="57" text-anchor="start" dominant-baseline="central" transform="matrix(1, 0, 0, 1, 0.5, 0.5)" fill-opacity="1">control</text></g><path fill="rgb(82,84,163)" stroke="rgb(82,84,163)" paint-order="fill" d="M 391.0927734375 57.5 A 4 4 0 0 1 383.0927734375 57.5 A 4 4 0 0 1 391.0927734375 57.5" fill-opacity="1" clip-path="url(#CleaQctZcfRi)" stroke-opacity="1" stroke-linejoin="bevel" stroke-miterlimit="10" stroke-dasharray=""/><path fill="rgb(82,84,163)" stroke="rgb(82,84,163)" paint-order="fill" d="M 391.0927734375 57.5 A 4 4 0 0 1 383.0927734375 57.5 A 4 4 0 0 1 391.0927734375 57.5" fill-opacity="1" clip-path="url(#CleaQctZcfRi)" stroke-opacity="1" stroke-linejoin="bevel" stroke-miterlimit="10" stroke-dasharray=""/><path fill="rgb(82,84,163)" stroke="rgb(82,84,163)" paint-order="fill" d="M 391.0927734375 57.5 A 4 4 0 0 1 383.0927734375 57.5 A 4 4 0 0 1 391.0927734375 57.5" fill-opacity="1" clip-path="url(#CleaQctZcfRi)" stroke-opacity="1" stroke-linejoin="bevel" stroke-miterlimit="10" stroke-dasharray=""/><g clip-path="url(#CleaQctZcfRi)"><text fill="rgb(68,68,68)" stroke="none" font-family="helvetica" font-size="13px" font-style="normal" font-weight="normal" text-decoration="normal" x="401.5927734375" y="80" text-anchor="start" dominant-baseline="central" transform="matrix(1, 0, 0, 1, 0.5, 0.5)" fill-opacity="1">Nosema</text></g><path fill="rgb(140,162,82)" stroke="rgb(140,162,82)" paint-order="fill" d="M 391.0927734375 80.5 A 4 4 0 0 1 383.0927734375 80.5 A 4 4 0 0 1 391.0927734375 80.5" fill-opacity="1" clip-path="url(#CleaQctZcfRi)" stroke-opacity="1" stroke-linejoin="bevel" stroke-miterlimit="10" stroke-dasharray=""/><path fill="rgb(140,162,82)" stroke="rgb(140,162,82)" paint-order="fill" d="M 391.0927734375 80.5 A 4 4 0 0 1 383.0927734375 80.5 A 4 4 0 0 1 391.0927734375 80.5" fill-opacity="1" clip-path="url(#CleaQctZcfRi)" stroke-opacity="1" stroke-linejoin="bevel" stroke-miterlimit="10" stroke-dasharray=""/><path fill="rgb(140,162,82)" stroke="rgb(140,162,82)" paint-order="fill" d="M 391.0927734375 80.5 A 4 4 0 0 1 383.0927734375 80.5 A 4 4 0 0 1 391.0927734375 80.5" fill-opacity="1" clip-path="url(#CleaQctZcfRi)" stroke-opacity="1" stroke-linejoin="bevel" stroke-miterlimit="10" stroke-dasharray=""/><g clip-path="url(#CleaQctZcfRi)"><text fill="rgb(68,68,68)" stroke="none" font-family="helvetica" font-size="13px" font-style="normal" font-weight="normal" text-decoration="normal" x="401.5927734375" y="103" text-anchor="start" dominant-baseline="central" transform="matrix(1, 0, 0, 1, 0.5, 0.5)" fill-opacity="1">BQCV</text></g><path fill="rgb(189,158,57)" stroke="rgb(189,158,57)" paint-order="fill" d="M 391.0927734375 103.5 A 4 4 0 0 1 383.0927734375 103.5 A 4 4 0 0 1 391.0927734375 103.5" fill-opacity="1" clip-path="url(#CleaQctZcfRi)" stroke-opacity="1" stroke-linejoin="bevel" stroke-miterlimit="10" stroke-dasharray=""/><path fill="rgb(189,158,57)" stroke="rgb(189,158,57)" paint-order="fill" d="M 391.0927734375 103.5 A 4 4 0 0 1 383.0927734375 103.5 A 4 4 0 0 1 391.0927734375 103.5" fill-opacity="1" clip-path="url(#CleaQctZcfRi)" stroke-opacity="1" stroke-linejoin="bevel" stroke-miterlimit="10" stroke-dasharray=""/><path fill="rgb(189,158,57)" stroke="rgb(189,158,57)" paint-order="fill" d="M 391.0927734375 103.5 A 4 4 0 0 1 383.0927734375 103.5 A 4 4 0 0 1 391.0927734375 103.5" fill-opacity="1" clip-path="url(#CleaQctZcfRi)" stroke-opacity="1" stroke-linejoin="bevel" stroke-miterlimit="10" stroke-dasharray=""/><g clip-path="url(#CleaQctZcfRi)"><text fill="rgb(68,68,68)" stroke="none" font-family="helvetica" font-size="13px" font-style="normal" font-weight="normal" text-decoration="normal" x="401.5927734375" y="126" text-anchor="start" dominant-baseline="central" transform="matrix(1, 0, 0, 1, 0.5, 0.5)" fill-opacity="1">both</text></g><path fill="rgb(173,73,74)" stroke="rgb(173,73,74)" paint-order="fill" d="M 391.0927734375 126.5 A 4 4 0 0 1 383.0927734375 126.5 A 4 4 0 0 1 391.0927734375 126.5" fill-opacity="1" clip-path="url(#CleaQctZcfRi)" stroke-opacity="1" stroke-linejoin="bevel" stroke-miterlimit="10" stroke-dasharray=""/><path fill="rgb(173,73,74)" stroke="rgb(173,73,74)" paint-order="fill" d="M 391.0927734375 126.5 A 4 4 0 0 1 383.0927734375 126.5 A 4 4 0 0 1 391.0927734375 126.5" fill-opacity="1" clip-path="url(#CleaQctZcfRi)" stroke-opacity="1" stroke-linejoin="bevel" stroke-miterlimit="10" stroke-dasharray=""/><text fill="rgb(68,68,68)" stroke="none" font-family="helvetica" font-size="13px" font-style="normal" font-weight="bold" text-decoration="normal" x="29" y="19" text-anchor="start" dominant-baseline="alphabetic" transform="matrix(1, 0, 0, 1, 0.5, 0.5)" fill-opacity="1">PCA of scaled data</text></svg>