<svg version="1.1" xmlns="http://www.w3.org/2000/svg" width="500" height="500"><defs><clipPath id="fOyHFdXDwWKo"><path fill="none" stroke="none" d="M 43.5 27.5 L 470.5 27.5 L 470.5 455.5 L 43.5 455.5 L 43.5 27.5"/></clipPath><clipPath id="LszgalUpqNzD"><path fill="none" stroke="none" d="M 43.5 27.5 L 470.5 27.5 L 470.5 455.5 L 43.5 455.5 L 43.5 27.5"/></clipPath><clipPath id="TXRWAXklaieh"><path fill="none" stroke="none" d="M 43.5 27.5 L 470.5 27.5 L 470.5 455.5 L 43.5 455.5 L 43.5 27.5"/></clipPath><clipPath id="MMEPkbJTtrTp"><path fill="none" stroke="none" d="M 43.5 27.5 L 470.5 27.5 L 470.5 455.5 L 43.5 455.5 L 43.5 27.5"/></clipPath><clipPath id="klqqLiUJcZFF"><path fill="none" stroke="none" d="M 43.5 27.5 L 470.5 27.5 L 470.5 455.5 L 43.5 455.5 L 43.5 27.5"/></clipPath><clipPath id="ZDtRaMRGZwbt"><path fill="none" stroke="none" d="M 43.5 27.5 L 470.5 27.5 L 470.5 455.5 L 43.5 455.5 L 43.5 27.5"/></clipPath><clipPath id="BHQBDZbzUMTS"><path fill="none" stroke="none" d="M 43.5 27.5 L 470.5 27.5 L 470.5 455.5 L 43.5 455.5 L 43.5 27.5"/></clipPath></defs><path fill="rgb(255,255,255)" stroke="none" paint-order="stroke" d="M 0.5 0.5 L 500.5 0.5 L 500.5 500.5 L 0.5 500.5 L 0.5 0.5" fill-opacity="1"/><rect fill="#FFFFFF" stroke="none" x="43" y="27" width="427" height="428" transform="matrix(1, 0, 0, 1, 0.5, 0.5)"/><path fill="rgb(255,255,255)" stroke="none" paint-order="stroke" d="M 43.5 27.5 L 470.5 27.5 L 470.5 455.5 L 43.5 455.5 L 43.5 27.5" fill-opacity="1"/><path fill="none" stroke="rgb(229,229,229)" paint-order="fill" d="M 43.5 27.5 L 470.5 27.5 L 470.5 455.5 L 43.5 455.5 L 43.5 27.5" stroke-opacity="1" stroke-linejoin="bevel" stroke-miterlimit="10" stroke-dasharray=""/><path fill="none" stroke="rgb(229,229,229)" paint-order="fill" d="M 69.5 455.5 L 69.5 27.5 M 130.5 455.5 L 130.5 27.5 M 191.5 455.5 L 191.5 27.5 M 251.5 455.5 L 251.5 27.5 M 312.5 455.5 L 312.5 27.5 M 373.5 455.5 L 373.5 27.5 M 434.5 455.5 L 434.5 27.5" stroke-opacity="1" stroke-linejoin="bevel" stroke-miterlimit="10" stroke-dasharray="" clip-path="url(#fOyHFdXDwWKo)"/><path fill="none" stroke="rgb(229,229,229)" paint-order="fill" d="M 43.5 414.5 L 470.5 414.5 M 43.5 330.5 L 470.5 330.5 M 43.5 246.5 L 470.5 246.5 M 43.5 162.5 L 470.5 162.5 M 43.5 78.5 L 470.5 78.5" stroke-opacity="1" stroke-linejoin="bevel" stroke-miterlimit="10" stroke-dasharray="" clip-path="url(#LszgalUpqNzD)"/><path fill="rgb(140,162,82)" stroke="rgb(255,255,255)" paint-order="fill" d="M 216.16461181640625 359.3862609863281 A 3.5 3.5 0 0 1 209.16461181640625 359.3862609863281 A 3.5 3.5 0 0 1 216.16461181640625 359.3862609863281" fill-opacity="1" clip-path="url(#TXRWAXklaieh)" stroke-opacity="1" stroke-linejoin="bevel" stroke-miterlimit="10" stroke-dasharray=""/><path fill="rgb(140,162,82)" stroke="rgb(255,255,255)" paint-order="fill" d="M 195.41714477539062 412.943359375 A 3.5 3.5 0 0 1 188.41714477539062 412.943359375 A 3.5 3.5 0 0 1 195.41714477539062 412.943359375" fill-opacity="1" clip-path="url(#TXRWAXklaieh)" stroke-opacity="1" stroke-linejoin="bevel" stroke-miterlimit="10" stroke-dasharray=""/><path fill="rgb(140,162,82)" stroke="rgb(255,255,255)" paint-order="fill" d="M 196.88722229003906 409.6815185546875 A 3.5 3.5 0 0 1 189.88722229003906 409.6815185546875 A 3.5 3.5 0 0 1 196.88722229003906 409.6815185546875" fill-opacity="1" clip-path="url(#TXRWAXklaieh)" stroke-opacity="1" stroke-linejoin="bevel" stroke-miterlimit="10" stroke-dasharray=""/><path fill="rgb(140,162,82)" stroke="rgb(255,255,255)" paint-order="fill" d="M 187.00274658203125 394.36248779296875 A 3.5 3.5 0 0 1 180.00274658203125 394.36248779296875 A 3.5 3.5 0 0 1 187.00274658203125 394.36248779296875" fill-opacity="1" clip-path="url(#TXRWAXklaieh)" stroke-opacity="1" stroke-linejoin="bevel" stroke-miterlimit="10" stroke-dasharray=""/><path fill="rgb(140,162,82)" stroke="rgb(255,255,255)" paint-order="fill" d="M 173.7184600830078 374.1951904296875 A 3.5 3.5 0 0 1 166.7184600830078 374.1951904296875 A 3.5 3.5 0 0 1 173.7184600830078 374.1951904296875" fill-opacity="1" clip-path="url(#TXRWAXklaieh)" stroke-opacity="1" stroke-linejoin="bevel" stroke-miterlimit="10" stroke-dasharray=""/><path fill="rgb(140,162,82)" stroke="rgb(255,255,255)" paint-order="fill" d="M 127.23068237304688 327.2475891113281 A 3.5 3.5 0 0 1 120.23068237304688 327.2475891113281 A 3.5 3.5 0 0 1 127.23068237304688 327.2475891113281" fill-opacity="1" clip-path="url(#TXRWAXklaieh)" stroke-opacity="1" stroke-linejoin="bevel" stroke-miterlimit="10" stroke-dasharray=""/><path fill="rgb(140,162,82)" stroke="rgb(255,255,255)" paint-order="fill" d="M 218.0016326904297 355.4345397949219 A 3.5 3.5 0 0 1 211.0016326904297 355.4345397949219 A 3.5 3.5 0 0 1 218.0016326904297 355.4345397949219" fill-opacity="1" clip-path="url(#TXRWAXklaieh)" stroke-opacity="1" stroke-linejoin="bevel" stroke-miterlimit="10" stroke-dasharray=""/><path fill="rgb(140,162,82)" stroke="rgb(255,255,255)" paint-order="fill" d="M 144.2797088623047 321.0240783691406 A 3.5 3.5 0 0 1 137.2797088623047 321.0240783691406 A 3.5 3.5 0 0 1 144.2797088623047 321.0240783691406" fill-opacity="1" clip-path="url(#TXRWAXklaieh)" stroke-opacity="1" stroke-linejoin="bevel" stroke-miterlimit="10" stroke-dasharray=""/><path fill="rgb(140,162,82)" stroke="rgb(255,255,255)" paint-order="fill" d="M 192.71144104003906 413.390869140625 A 3.5 3.5 0 0 1 185.71144104003906 413.390869140625 A 3.5 3.5 0 0 1 192.71144104003906 413.390869140625" fill-opacity="1" clip-path="url(#TXRWAXklaieh)" stroke-opacity="1" stroke-linejoin="bevel" stroke-miterlimit="10" stroke-dasharray=""/><path fill="rgb(140,162,82)" stroke="rgb(255,255,255)" paint-order="fill" d="M 205.926025390625 371.5224914550781 A 3.5 3.5 0 0 1 198.926025390625 371.5224914550781 A 3.5 3.5 0 0 1 205.926025390625 371.5224914550781" fill-opacity="1" clip-path="url(#TXRWAXklaieh)" stroke-opacity="1" stroke-linejoin="bevel" stroke-miterlimit="10" stroke-dasharray=""/><path fill="rgb(140,162,82)" stroke="rgb(255,255,255)" paint-order="fill" d="M 219.08636474609375 394.11468505859375 A 3.5 3.5 0 0 1 212.08636474609375 394.11468505859375 A 3.5 3.5 0 0 1 219.08636474609375 394.11468505859375" fill-opacity="1" clip-path="url(#TXRWAXklaieh)" stroke-opacity="1" stroke-linejoin="bevel" stroke-miterlimit="10" stroke-dasharray=""/><path fill="rgb(140,162,82)" stroke="rgb(255,255,255)" paint-order="fill" d="M 200.19937133789062 398.2639465332031 A 3.5 3.5 0 0 1 193.19937133789062 398.2639465332031 A 3.5 3.5 0 0 1 200.19937133789062 398.2639465332031" fill-opacity="1" clip-path="url(#TXRWAXklaieh)" stroke-opacity="1" stroke-linejoin="bevel" stroke-miterlimit="10" stroke-dasharray=""/><path fill="rgb(140,162,82)" stroke="rgb(255,255,255)" paint-order="fill" d="M 187.26531982421875 395.372314453125 A 3.5 3.5 0 0 1 180.26531982421875 395.372314453125 A 3.5 3.5 0 0 1 187.26531982421875 395.372314453125" fill-opacity="1" clip-path="url(#TXRWAXklaieh)" stroke-opacity="1" stroke-linejoin="bevel" stroke-miterlimit="10" stroke-dasharray=""/><path fill="rgb(140,162,82)" stroke="rgb(255,255,255)" paint-order="fill" d="M 185.48086547851562 403.2643127441406 A 3.5 3.5 0 0 1 178.48086547851562 403.2643127441406 A 3.5 3.5 0 0 1 185.48086547851562 403.2643127441406" fill-opacity="1" clip-path="url(#TXRWAXklaieh)" stroke-opacity="1" stroke-linejoin="bevel" stroke-miterlimit="10" stroke-dasharray=""/><path fill="rgb(140,162,82)" stroke="rgb(255,255,255)" paint-order="fill" d="M 171.74644470214844 344.95953369140625 A 3.5 3.5 0 0 1 164.74644470214844 344.95953369140625 A 3.5 3.5 0 0 1 171.74644470214844 344.95953369140625" fill-opacity="1" clip-path="url(#TXRWAXklaieh)" stroke-opacity="1" stroke-linejoin="bevel" stroke-miterlimit="10" stroke-dasharray=""/><path fill="rgb(140,162,82)" stroke="rgb(255,255,255)" paint-order="fill" d="M 197.27816772460938 409.71783447265625 A 3.5 3.5 0 0 1 190.27816772460938 409.71783447265625 A 3.5 3.5 0 0 1 197.27816772460938 409.71783447265625" fill-opacity="1" clip-path="url(#TXRWAXklaieh)" stroke-opacity="1" stroke-linejoin="bevel" stroke-miterlimit="10" stroke-dasharray=""/><path fill="rgb(140,162,82)" stroke="rgb(255,255,255)" paint-order="fill" d="M 191.7854461669922 410.4786682128906 A 3.5 3.5 0 0 1 184.7854461669922 410.4786682128906 A 3.5 3.5 0 0 1 191.7854461669922 410.4786682128906" fill-opacity="1" clip-path="url(#TXRWAXklaieh)" stroke-opacity="1" stroke-linejoin="bevel" stroke-miterlimit="10" stroke-dasharray=""/><path fill="rgb(140,162,82)" stroke="rgb(255,255,255)" paint-order="fill" d="M 195.1599578857422 413.50897216796875 A 3.5 3.5 0 0 1 188.1599578857422 413.50897216796875 A 3.5 3.5 0 0 1 195.1599578857422 413.50897216796875" fill-opacity="1" clip-path="url(#TXRWAXklaieh)" stroke-opacity="1" stroke-linejoin="bevel" stroke-miterlimit="10" stroke-dasharray=""/><path fill="rgb(140,162,82)" stroke="rgb(255,255,255)" paint-order="fill" d="M 221.6106719970703 389.45550537109375 A 3.5 3.5 0 0 1 214.6106719970703 389.45550537109375 A 3.5 3.5 0 0 1 221.6106719970703 389.45550537109375" fill-opacity="1" clip-path="url(#TXRWAXklaieh)" stroke-opacity="1" stroke-linejoin="bevel" stroke-miterlimit="10" stroke-dasharray=""/><path fill="rgb(140,162,82)" stroke="rgb(255,255,255)" paint-order="fill" d="M 162.6466827392578 368.3890380859375 A 3.5 3.5 0 0 1 155.6466827392578 368.3890380859375 A 3.5 3.5 0 0 1 162.6466827392578 368.3890380859375" fill-opacity="1" clip-path="url(#TXRWAXklaieh)" stroke-opacity="1" stroke-linejoin="bevel" stroke-miterlimit="10" stroke-dasharray=""/><path fill="rgb(140,162,82)" stroke="rgb(255,255,255)" paint-order="fill" d="M 155.2480010986328 372.9790954589844 A 3.5 3.5 0 0 1 148.2480010986328 372.9790954589844 A 3.5 3.5 0 0 1 155.2480010986328 372.9790954589844" fill-opacity="1" clip-path="url(#TXRWAXklaieh)" stroke-opacity="1" stroke-linejoin="bevel" stroke-miterlimit="10" stroke-dasharray=""/><path fill="rgb(140,162,82)" stroke="rgb(255,255,255)" paint-order="fill" d="M 215.8076171875 397.7223205566406 A 3.5 3.5 0 0 1 208.8076171875 397.7223205566406 A 3.5 3.5 0 0 1 215.8076171875 397.7223205566406" fill-opacity="1" clip-path="url(#TXRWAXklaieh)" stroke-opacity="1" stroke-linejoin="bevel" stroke-miterlimit="10" stroke-dasharray=""/><path fill="rgb(140,162,82)" stroke="rgb(255,255,255)" paint-order="fill" d="M 185.69761657714844 394.618896484375 A 3.5 3.5 0 0 1 178.69761657714844 394.618896484375 A 3.5 3.5 0 0 1 185.69761657714844 394.618896484375" fill-opacity="1" clip-path="url(#TXRWAXklaieh)" stroke-opacity="1" stroke-linejoin="bevel" stroke-miterlimit="10" stroke-dasharray=""/><path fill="rgb(140,162,82)" stroke="rgb(255,255,255)" paint-order="fill" d="M 178.5238037109375 387.0293273925781 A 3.5 3.5 0 0 1 171.5238037109375 387.0293273925781 A 3.5 3.5 0 0 1 178.5238037109375 387.0293273925781" fill-opacity="1" clip-path="url(#TXRWAXklaieh)" stroke-opacity="1" stroke-linejoin="bevel" stroke-miterlimit="10" stroke-dasharray=""/><path fill="rgb(140,162,82)" stroke="rgb(255,255,255)" paint-order="fill" d="M 184.39479064941406 397.0640563964844 A 3.5 3.5 0 0 1 177.39479064941406 397.0640563964844 A 3.5 3.5 0 0 1 184.39479064941406 397.0640563964844" fill-opacity="1" clip-path="url(#TXRWAXklaieh)" stroke-opacity="1" stroke-linejoin="bevel" stroke-miterlimit="10" stroke-dasharray=""/><path fill="rgb(140,162,82)" stroke="rgb(255,255,255)" paint-order="fill" d="M 199.58383178710938 402.16925048828125 A 3.5 3.5 0 0 1 192.58383178710938 402.16925048828125 A 3.5 3.5 0 0 1 199.58383178710938 402.16925048828125" fill-opacity="1" clip-path="url(#TXRWAXklaieh)" stroke-opacity="1" stroke-linejoin="bevel" stroke-miterlimit="10" stroke-dasharray=""/><path fill="rgb(140,162,82)" stroke="rgb(255,255,255)" paint-order="fill" d="M 179.4358673095703 405.6156005859375 A 3.5 3.5 0 0 1 172.4358673095703 405.6156005859375 A 3.5 3.5 0 0 1 179.4358673095703 405.6156005859375" fill-opacity="1" clip-path="url(#TXRWAXklaieh)" stroke-opacity="1" stroke-linejoin="bevel" stroke-miterlimit="10" stroke-dasharray=""/><path fill="rgb(140,162,82)" stroke="rgb(255,255,255)" paint-order="fill" d="M 202.69332885742188 381.9787292480469 A 3.5 3.5 0 0 1 195.69332885742188 381.9787292480469 A 3.5 3.5 0 0 1 202.69332885742188 381.9787292480469" fill-opacity="1" clip-path="url(#TXRWAXklaieh)" stroke-opacity="1" stroke-linejoin="bevel" stroke-miterlimit="10" stroke-dasharray=""/><path fill="rgb(140,162,82)" stroke="rgb(255,255,255)" paint-order="fill" d="M 77.37616729736328 284.3003234863281 A 3.5 3.5 0 0 1 70.37616729736328 284.3003234863281 A 3.5 3.5 0 0 1 77.37616729736328 284.3003234863281" fill-opacity="1" clip-path="url(#TXRWAXklaieh)" stroke-opacity="1" stroke-linejoin="bevel" stroke-miterlimit="10" stroke-dasharray=""/><path fill="rgb(140,162,82)" stroke="rgb(255,255,255)" paint-order="fill" d="M 153.3968048095703 310.4684143066406 A 3.5 3.5 0 0 1 146.3968048095703 310.4684143066406 A 3.5 3.5 0 0 1 153.3968048095703 310.4684143066406" fill-opacity="1" clip-path="url(#TXRWAXklaieh)" stroke-opacity="1" stroke-linejoin="bevel" stroke-miterlimit="10" stroke-dasharray=""/><path fill="rgb(140,162,82)" stroke="rgb(255,255,255)" paint-order="fill" d="M 230.37266540527344 334.1293029785156 A 3.5 3.5 0 0 1 223.37266540527344 334.1293029785156 A 3.5 3.5 0 0 1 230.37266540527344 334.1293029785156" fill-opacity="1" clip-path="url(#TXRWAXklaieh)" stroke-opacity="1" stroke-linejoin="bevel" stroke-miterlimit="10" stroke-dasharray=""/><path fill="rgb(140,162,82)" stroke="rgb(255,255,255)" paint-order="fill" d="M 184.9093017578125 398.1625671386719 A 3.5 3.5 0 0 1 177.9093017578125 398.1625671386719 A 3.5 3.5 0 0 1 184.9093017578125 398.1625671386719" fill-opacity="1" clip-path="url(#TXRWAXklaieh)" stroke-opacity="1" stroke-linejoin="bevel" stroke-miterlimit="10" stroke-dasharray=""/><path fill="rgb(140,162,82)" stroke="rgb(255,255,255)" paint-order="fill" d="M 183.82998657226562 386.64813232421875 A 3.5 3.5 0 0 1 176.82998657226562 386.64813232421875 A 3.5 3.5 0 0 1 183.82998657226562 386.64813232421875" fill-opacity="1" clip-path="url(#TXRWAXklaieh)" stroke-opacity="1" stroke-linejoin="bevel" stroke-miterlimit="10" stroke-dasharray=""/><path fill="rgb(140,162,82)" stroke="rgb(255,255,255)" paint-order="fill" d="M 180.10855102539062 385.1548156738281 A 3.5 3.5 0 0 1 173.10855102539062 385.1548156738281 A 3.5 3.5 0 0 1 180.10855102539062 385.1548156738281" fill-opacity="1" clip-path="url(#TXRWAXklaieh)" stroke-opacity="1" stroke-linejoin="bevel" stroke-miterlimit="10" stroke-dasharray=""/><path fill="rgb(140,162,82)" stroke="rgb(255,255,255)" paint-order="fill" d="M 167.97787475585938 373.34759521484375 A 3.5 3.5 0 0 1 160.97787475585938 373.34759521484375 A 3.5 3.5 0 0 1 167.97787475585938 373.34759521484375" fill-opacity="1" clip-path="url(#TXRWAXklaieh)" stroke-opacity="1" stroke-linejoin="bevel" stroke-miterlimit="10" stroke-dasharray=""/><path fill="rgb(140,162,82)" stroke="rgb(255,255,255)" paint-order="fill" d="M 185.79736328125 406.4236755371094 A 3.5 3.5 0 0 1 178.79736328125 406.4236755371094 A 3.5 3.5 0 0 1 185.79736328125 406.4236755371094" fill-opacity="1" clip-path="url(#TXRWAXklaieh)" stroke-opacity="1" stroke-linejoin="bevel" stroke-miterlimit="10" stroke-dasharray=""/><path fill="rgb(140,162,82)" stroke="rgb(255,255,255)" paint-order="fill" d="M 186.46005249023438 386.753662109375 A 3.5 3.5 0 0 1 179.46005249023438 386.753662109375 A 3.5 3.5 0 0 1 186.46005249023438 386.753662109375" fill-opacity="1" clip-path="url(#TXRWAXklaieh)" stroke-opacity="1" stroke-linejoin="bevel" stroke-miterlimit="10" stroke-dasharray=""/><path fill="rgb(140,162,82)" stroke="rgb(255,255,255)" paint-order="fill" d="M 211.2190704345703 383.7698974609375 A 3.5 3.5 0 0 1 204.2190704345703 383.7698974609375 A 3.5 3.5 0 0 1 211.2190704345703 383.7698974609375" fill-opacity="1" clip-path="url(#TXRWAXklaieh)" stroke-opacity="1" stroke-linejoin="bevel" stroke-miterlimit="10" stroke-dasharray=""/><path fill="rgb(140,162,82)" stroke="rgb(255,255,255)" paint-order="fill" d="M 216.12353515625 359.09698486328125 A 3.5 3.5 0 0 1 209.12353515625 359.09698486328125 A 3.5 3.5 0 0 1 216.12353515625 359.09698486328125" fill-opacity="1" clip-path="url(#TXRWAXklaieh)" stroke-opacity="1" stroke-linejoin="bevel" stroke-miterlimit="10" stroke-dasharray=""/><path fill="rgb(140,162,82)" stroke="rgb(255,255,255)" paint-order="fill" d="M 208.34950256347656 370.11480712890625 A 3.5 3.5 0 0 1 201.34950256347656 370.11480712890625 A 3.5 3.5 0 0 1 208.34950256347656 370.11480712890625" fill-opacity="1" clip-path="url(#TXRWAXklaieh)" stroke-opacity="1" stroke-linejoin="bevel" stroke-miterlimit="10" stroke-dasharray=""/><path fill="rgb(140,162,82)" stroke="rgb(255,255,255)" paint-order="fill" d="M 363.1382751464844 69.49102020263672 A 3.5 3.5 0 0 1 356.1382751464844 69.49102020263672 A 3.5 3.5 0 0 1 363.1382751464844 69.49102020263672" fill-opacity="1" clip-path="url(#TXRWAXklaieh)" stroke-opacity="1" stroke-linejoin="bevel" stroke-miterlimit="10" stroke-dasharray=""/><path fill="rgb(140,162,82)" stroke="rgb(255,255,255)" paint-order="fill" d="M 199.9419708251953 405.0945129394531 A 3.5 3.5 0 0 1 192.9419708251953 405.0945129394531 A 3.5 3.5 0 0 1 199.9419708251953 405.0945129394531" fill-opacity="1" clip-path="url(#TXRWAXklaieh)" stroke-opacity="1" stroke-linejoin="bevel" stroke-miterlimit="10" stroke-dasharray=""/><path fill="rgb(140,162,82)" stroke="rgb(255,255,255)" paint-order="fill" d="M 443.62384033203125 304.3216857910156 A 3.5 3.5 0 0 1 436.62384033203125 304.3216857910156 A 3.5 3.5 0 0 1 443.62384033203125 304.3216857910156" fill-opacity="1" clip-path="url(#TXRWAXklaieh)" stroke-opacity="1" stroke-linejoin="bevel" stroke-miterlimit="10" stroke-dasharray=""/><path fill="rgb(140,162,82)" stroke="rgb(255,255,255)" paint-order="fill" d="M 174.1273193359375 392.0401916503906 A 3.5 3.5 0 0 1 167.1273193359375 392.0401916503906 A 3.5 3.5 0 0 1 174.1273193359375 392.0401916503906" fill-opacity="1" clip-path="url(#TXRWAXklaieh)" stroke-opacity="1" stroke-linejoin="bevel" stroke-miterlimit="10" stroke-dasharray=""/><path fill="rgb(140,162,82)" stroke="rgb(255,255,255)" paint-order="fill" d="M 212.0316162109375 371.9136047363281 A 3.5 3.5 0 0 1 205.0316162109375 371.9136047363281 A 3.5 3.5 0 0 1 212.0316162109375 371.9136047363281" fill-opacity="1" clip-path="url(#TXRWAXklaieh)" stroke-opacity="1" stroke-linejoin="bevel" stroke-miterlimit="10" stroke-dasharray=""/><path fill="rgb(140,162,82)" stroke="rgb(255,255,255)" paint-order="fill" d="M 210.74644470214844 393.2734375 A 3.5 3.5 0 0 1 203.74644470214844 393.2734375 A 3.5 3.5 0 0 1 210.74644470214844 393.2734375" fill-opacity="1" clip-path="url(#TXRWAXklaieh)" stroke-opacity="1" stroke-linejoin="bevel" stroke-miterlimit="10" stroke-dasharray=""/><path fill="rgb(140,162,82)" stroke="rgb(255,255,255)" paint-order="fill" d="M 239.6042938232422 344.1028747558594 A 3.5 3.5 0 0 1 232.6042938232422 344.1028747558594 A 3.5 3.5 0 0 1 239.6042938232422 344.1028747558594" fill-opacity="1" clip-path="url(#TXRWAXklaieh)" stroke-opacity="1" stroke-linejoin="bevel" stroke-miterlimit="10" stroke-dasharray=""/><path fill="rgb(140,162,82)" stroke="rgb(255,255,255)" paint-order="fill" d="M 187.2166748046875 386.2086181640625 A 3.5 3.5 0 0 1 180.2166748046875 386.2086181640625 A 3.5 3.5 0 0 1 187.2166748046875 386.2086181640625" fill-opacity="1" clip-path="url(#TXRWAXklaieh)" stroke-opacity="1" stroke-linejoin="bevel" stroke-miterlimit="10" stroke-dasharray=""/><path fill="rgb(140,162,82)" stroke="rgb(255,255,255)" paint-order="fill" d="M 254.85536193847656 316.75067138671875 A 3.5 3.5 0 0 1 247.85536193847656 316.75067138671875 A 3.5 3.5 0 0 1 254.85536193847656 316.75067138671875" fill-opacity="1" clip-path="url(#TXRWAXklaieh)" stroke-opacity="1" stroke-linejoin="bevel" stroke-miterlimit="10" stroke-dasharray=""/><path fill="rgb(140,162,82)" stroke="rgb(255,255,255)" paint-order="fill" d="M 182.71730041503906 389.75018310546875 A 3.5 3.5 0 0 1 175.71730041503906 389.75018310546875 A 3.5 3.5 0 0 1 182.71730041503906 389.75018310546875" fill-opacity="1" clip-path="url(#TXRWAXklaieh)" stroke-opacity="1" stroke-linejoin="bevel" stroke-miterlimit="10" stroke-dasharray=""/><path fill="rgb(140,162,82)" stroke="rgb(255,255,255)" paint-order="fill" d="M 213.5598602294922 360.18115234375 A 3.5 3.5 0 0 1 206.5598602294922 360.18115234375 A 3.5 3.5 0 0 1 213.5598602294922 360.18115234375" fill-opacity="1" clip-path="url(#TXRWAXklaieh)" stroke-opacity="1" stroke-linejoin="bevel" stroke-miterlimit="10" stroke-dasharray=""/><path fill="rgb(140,162,82)" stroke="rgb(255,255,255)" paint-order="fill" d="M 198.687744140625 396.0814514160156 A 3.5 3.5 0 0 1 191.687744140625 396.0814514160156 A 3.5 3.5 0 0 1 198.687744140625 396.0814514160156" fill-opacity="1" clip-path="url(#TXRWAXklaieh)" stroke-opacity="1" stroke-linejoin="bevel" stroke-miterlimit="10" stroke-dasharray=""/><path fill="rgb(140,162,82)" stroke="rgb(255,255,255)" paint-order="fill" d="M 219.93321228027344 366.0912780761719 A 3.5 3.5 0 0 1 212.93321228027344 366.0912780761719 A 3.5 3.5 0 0 1 219.93321228027344 366.0912780761719" fill-opacity="1" clip-path="url(#TXRWAXklaieh)" stroke-opacity="1" stroke-linejoin="bevel" stroke-miterlimit="10" stroke-dasharray=""/><path fill="rgb(140,162,82)" stroke="rgb(255,255,255)" paint-order="fill" d="M 168.4429931640625 372.9664306640625 A 3.5 3.5 0 0 1 161.4429931640625 372.9664306640625 A 3.5 3.5 0 0 1 168.4429931640625 372.9664306640625" fill-opacity="1" clip-path="url(#TXRWAXklaieh)" stroke-opacity="1" stroke-linejoin="bevel" stroke-miterlimit="10" stroke-dasharray=""/><path fill="rgb(140,162,82)" stroke="rgb(255,255,255)" paint-order="fill" d="M 182.04949951171875 376.8619384765625 A 3.5 3.5 0 0 1 175.04949951171875 376.8619384765625 A 3.5 3.5 0 0 1 182.04949951171875 376.8619384765625" fill-opacity="1" clip-path="url(#TXRWAXklaieh)" stroke-opacity="1" stroke-linejoin="bevel" stroke-miterlimit="10" stroke-dasharray=""/><path fill="rgb(140,162,82)" stroke="rgb(255,255,255)" paint-order="fill" d="M 175.87149047851562 382.5406799316406 A 3.5 3.5 0 0 1 168.87149047851562 382.5406799316406 A 3.5 3.5 0 0 1 175.87149047851562 382.5406799316406" fill-opacity="1" clip-path="url(#TXRWAXklaieh)" stroke-opacity="1" stroke-linejoin="bevel" stroke-miterlimit="10" stroke-dasharray=""/><path fill="rgb(140,162,82)" stroke="rgb(255,255,255)" paint-order="fill" d="M 185.87625122070312 404.7222595214844 A 3.5 3.5 0 0 1 178.87625122070312 404.7222595214844 A 3.5 3.5 0 0 1 185.87625122070312 404.7222595214844" fill-opacity="1" clip-path="url(#TXRWAXklaieh)" stroke-opacity="1" stroke-linejoin="bevel" stroke-miterlimit="10" stroke-dasharray=""/><path fill="rgb(0,128,0)" stroke="none" paint-order="stroke" d="M 43.5 27.5 L 130.4923095703125 27.5 L 130.4923095703125 455.5 L 43.5 455.5 L 43.5 27.5" fill-opacity="0.10196078431372549" clip-path="url(#MMEPkbJTtrTp)"/><path fill="rgb(0,128,0)" stroke="none" paint-order="stroke" d="M 251.99697875976562 27.5 L 470.5 27.5 L 470.5 455.5 L 251.99697875976562 455.5 L 251.99697875976562 27.5" fill-opacity="0.10196078431372549" clip-path="url(#klqqLiUJcZFF)"/><path fill="none" stroke="rgb(0,0,0)" paint-order="fill" d="M 43.5 455.5 L 470.5 455.5" stroke-opacity="1" stroke-linejoin="bevel" stroke-miterlimit="10" stroke-dasharray=""/><path fill="none" stroke="rgb(0,0,0)" paint-order="fill" d="M 69.5 461.5 L 69.5 453.5 M 130.5 461.5 L 130.5 453.5 M 191.5 461.5 L 191.5 453.5 M 251.5 461.5 L 251.5 453.5 M 312.5 461.5 L 312.5 453.5 M 373.5 461.5 L 373.5 453.5 M 434.5 461.5 L 434.5 453.5" stroke-opacity="1" stroke-linejoin="bevel" stroke-miterlimit="10" stroke-dasharray=""/><path fill="none" stroke="rgb(0,0,0)" paint-order="fill" d="M 57.5 459.5 L 57.5 455.5 M 45.5 459.5 L 45.5 455.5 M 69.5 459.5 L 69.5 455.5 M 81.5 459.5 L 81.5 455.5 M 94.5 459.5 L 94.5 455.5 M 106.5 459.5 L 106.5 455.5 M 118.5 459.5 L 118.5 455.5 M 130.5 459.5 L 130.5 455.5 M 142.5 459.5 L 142.5 455.5 M 154.5 459.5 L 154.5 455.5 M 166.5 459.5 L 166.5 455.5 M 179.5 459.5 L 179.5 455.5 M 191.5 459.5 L 191.5 455.5 M 203.5 459.5 L 203.5 455.5 M 215.5 459.5 L 215.5 455.5 M 227.5 459.5 L 227.5 455.5 M 239.5 459.5 L 239.5 455.5 M 251.5 459.5 L 251.5 455.5 M 264.5 459.5 L 264.5 455.5 M 276.5 459.5 L 276.5 455.5 M 288.5 459.5 L 288.5 455.5 M 300.5 459.5 L 300.5 455.5 M 312.5 459.5 L 312.5 455.5 M 324.5 459.5 L 324.5 455.5 M 337.5 459.5 L 337.5 455.5 M 349.5 459.5 L 349.5 455.5 M 361.5 459.5 L 361.5 455.5 M 373.5 459.5 L 373.5 455.5 M 385.5 459.5 L 385.5 455.5 M 397.5 459.5 L 397.5 455.5 M 409.5 459.5 L 409.5 455.5 M 422.5 459.5 L 422.5 455.5 M 434.5 459.5 L 434.5 455.5 M 446.5 459.5 L 446.5 455.5 M 458.5 459.5 L 458.5 455.5" stroke-opacity="1" stroke-linejoin="bevel" stroke-miterlimit="10" stroke-dasharray=""/><text fill="rgb(68,68,68)" stroke="none" font-family="helvetica" font-size="11px" font-style="normal" font-weight="normal" text-decoration="normal" x="62.96923065185547" y="473.89013671875" text-anchor="start" dominant-baseline="alphabetic" transform="matrix(1, 0, 0, 1, 0.5, 0.5)" fill-opacity="1">−2</text><text fill="rgb(68,68,68)" stroke="none" font-family="helvetica" font-size="11px" font-style="normal" font-weight="normal" text-decoration="normal" x="123.7215576171875" y="473.89013671875" text-anchor="start" dominant-baseline="alphabetic" transform="matrix(1, 0, 0, 1, 0.5, 0.5)" fill-opacity="1">−1</text><text fill="rgb(68,68,68)" stroke="none" font-family="helvetica" font-size="11px" font-style="normal" font-weight="normal" text-decoration="normal" x="187.68580627441406" y="473.89013671875" text-anchor="start" dominant-baseline="alphabetic" transform="matrix(1, 0, 0, 1, 0.5, 0.5)" fill-opacity="1">0</text><text fill="rgb(68,68,68)" stroke="none" font-family="helvetica" font-size="11px" font-style="normal" font-weight="normal" text-decoration="normal" x="248.43814086914062" y="473.89013671875" text-anchor="start" dominant-baseline="alphabetic" transform="matrix(1, 0, 0, 1, 0.5, 0.5)" fill-opacity="1">1</text><text fill="rgb(68,68,68)" stroke="none" font-family="helvetica" font-size="11px" font-style="normal" font-weight="normal" text-decoration="normal" x="309.1904602050781" y="473.89013671875" text-anchor="start" dominant-baseline="alphabetic" transform="matrix(1, 0, 0, 1, 0.5, 0.5)" fill-opacity="1">2</text><text fill="rgb(68,68,68)" stroke="none" font-family="helvetica" font-size="11px" font-style="normal" font-weight="normal" text-decoration="normal" x="369.94281005859375" y="473.89013671875" text-anchor="start" dominant-baseline="alphabetic" transform="matrix(1, 0, 0, 1, 0.5, 0.5)" fill-opacity="1">3</text><text fill="rgb(68,68,68)" stroke="none" font-family="helvetica" font-size="11px" font-style="normal" font-weight="normal" text-decoration="normal" x="430.69512939453125" y="473.89013671875" text-anchor="start" dominant-baseline="alphabetic" transform="matrix(1, 0, 0, 1, 0.5, 0.5)" fill-opacity="1">4</text><text fill="rgb(68,68,68)" stroke="none" font-family="helvetica" font-size="13px" font-style="italic" font-weight="normal" text-decoration="normal" x="204.1064453125" y="493.89013671875" text-anchor="start" dominant-baseline="alphabetic" transform="matrix(1, 0, 0, 1, 0.5, 0.5)" fill-opacity="1">log2 (fold-change)</text><path fill="none" stroke="rgb(0,0,0)" paint-order="fill" d="M 43.5 455.5 L 43.5 27.5" stroke-opacity="1" stroke-linejoin="bevel" stroke-miterlimit="10" stroke-dasharray=""/><path fill="none" stroke="rgb(0,0,0)" paint-order="fill" d="M 37.5 414.5 L 45.5 414.5 M 37.5 330.5 L 45.5 330.5 M 37.5 246.5 L 45.5 246.5 M 37.5 162.5 L 45.5 162.5 M 37.5 78.5 L 45.5 78.5" stroke-opacity="1" stroke-linejoin="bevel" stroke-miterlimit="10" stroke-dasharray=""/><path fill="none" stroke="rgb(0,0,0)" paint-order="fill" d="M 39.5 431.5 L 43.5 431.5 M 39.5 448.5 L 43.5 448.5 M 39.5 414.5 L 43.5 414.5 M 39.5 397.5 L 43.5 397.5 M 39.5 380.5 L 43.5 380.5 M 39.5 364.5 L 43.5 364.5 M 39.5 347.5 L 43.5 347.5 M 39.5 330.5 L 43.5 330.5 M 39.5 313.5 L 43.5 313.5 M 39.5 296.5 L 43.5 296.5 M 39.5 280.5 L 43.5 280.5 M 39.5 263.5 L 43.5 263.5 M 39.5 246.5 L 43.5 246.5 M 39.5 229.5 L 43.5 229.5 M 39.5 213.5 L 43.5 213.5 M 39.5 196.5 L 43.5 196.5 M 39.5 179.5 L 43.5 179.5 M 39.5 162.5 L 43.5 162.5 M 39.5 145.5 L 43.5 145.5 M 39.5 129.5 L 43.5 129.5 M 39.5 112.5 L 43.5 112.5 M 39.5 95.5 L 43.5 95.5 M 39.5 78.5 L 43.5 78.5 M 39.5 61.5 L 43.5 61.5 M 39.5 45.5 L 43.5 45.5 M 39.5 28.5 L 43.5 28.5" stroke-opacity="1" stroke-linejoin="bevel" stroke-miterlimit="10" stroke-dasharray=""/><text fill="rgb(68,68,68)" stroke="none" font-family="helvetica" font-size="11px" font-style="normal" font-weight="normal" text-decoration="normal" x="25.88232421875" y="418.00982666015625" text-anchor="start" dominant-baseline="alphabetic" transform="matrix(1, 0, 0, 1, 0.5, 0.5)" fill-opacity="1">0</text><text fill="rgb(68,68,68)" stroke="none" font-family="helvetica" font-size="11px" font-style="normal" font-weight="normal" text-decoration="normal" x="25.88232421875" y="334.0278015136719" text-anchor="start" dominant-baseline="alphabetic" transform="matrix(1, 0, 0, 1, 0.5, 0.5)" fill-opacity="1">1</text><text fill="rgb(68,68,68)" stroke="none" font-family="helvetica" font-size="11px" font-style="normal" font-weight="normal" text-decoration="normal" x="25.88232421875" y="250.04576110839844" text-anchor="start" dominant-baseline="alphabetic" transform="matrix(1, 0, 0, 1, 0.5, 0.5)" fill-opacity="1">2</text><text fill="rgb(68,68,68)" stroke="none" font-family="helvetica" font-size="11px" font-style="normal" font-weight="normal" text-decoration="normal" x="25.88232421875" y="166.063720703125" text-anchor="start" dominant-baseline="alphabetic" transform="matrix(1, 0, 0, 1, 0.5, 0.5)" fill-opacity="1">3</text><text fill="rgb(68,68,68)" stroke="none" font-family="helvetica" font-size="11px" font-style="normal" font-weight="normal" text-decoration="normal" x="25.88232421875" y="82.08168029785156" text-anchor="start" dominant-baseline="alphabetic" transform="matrix(1, 0, 0, 1, 0.5, 0.5)" fill-opacity="1">4</text><text fill="rgb(68,68,68)" stroke="none" font-family="helvetica" font-size="13px" font-style="italic" font-weight="normal" text-decoration="normal" x="-27.639892578125" y="238" text-anchor="start" dominant-baseline="alphabetic" transform="matrix(6.123233995736766e-17, -1, 1, 6.123233995736766e-17, -222.61767578125, 259.38232421875)" fill-opacity="1">-log10 (p-value)</text><g clip-path="url(#ZDtRaMRGZwbt)"><text fill="rgb(68,68,68)" stroke="none" font-family="helvetica" font-size="16px" font-style="normal" font-weight="normal" text-decoration="normal" x="364.1382751464844" y="59.99102020263672" text-anchor="start" dominant-baseline="alphabetic" transform="matrix(1, 0, 0, 1, 0.5, 0.5)" fill-opacity="1">LOC724239</text></g><text fill="rgb(68,68,68)" stroke="none" font-family="helvetica" font-size="13px" font-style="normal" font-weight="bold" text-decoration="normal" x="43" y="19" text-anchor="start" dominant-baseline="alphabetic" transform="matrix(1, 0, 0, 1, 0.5, 0.5)" fill-opacity="1">Hygiene-associated genes under Nosema infection</text></svg>