<svg version="1.1" xmlns="http://www.w3.org/2000/svg" width="500" height="500"><defs><clipPath id="cVkibRwtJQRl"><path fill="none" stroke="none" d="M 43.5 27.5 L 470.5 27.5 L 470.5 455.5 L 43.5 455.5 L 43.5 27.5"/></clipPath><clipPath id="xlarihfwXWTT"><path fill="none" stroke="none" d="M 43.5 27.5 L 470.5 27.5 L 470.5 455.5 L 43.5 455.5 L 43.5 27.5"/></clipPath><clipPath id="dUtTBKGRCZHa"><path fill="none" stroke="none" d="M 43.5 27.5 L 470.5 27.5 L 470.5 455.5 L 43.5 455.5 L 43.5 27.5"/></clipPath><clipPath id="tKgzXIJBZclH"><path fill="none" stroke="none" d="M 43.5 27.5 L 470.5 27.5 L 470.5 455.5 L 43.5 455.5 L 43.5 27.5"/></clipPath><clipPath id="tlZrHpIbTHrw"><path fill="none" stroke="none" d="M 43.5 27.5 L 470.5 27.5 L 470.5 455.5 L 43.5 455.5 L 43.5 27.5"/></clipPath><clipPath id="XmCplDfVVDDv"><path fill="none" stroke="none" d="M 43.5 27.5 L 470.5 27.5 L 470.5 455.5 L 43.5 455.5 L 43.5 27.5"/></clipPath><clipPath id="HFASmeJdVgWH"><path fill="none" stroke="none" d="M 43.5 27.5 L 470.5 27.5 L 470.5 455.5 L 43.5 455.5 L 43.5 27.5"/></clipPath></defs><path fill="rgb(255,255,255)" stroke="none" paint-order="stroke" d="M 0.5 0.5 L 500.5 0.5 L 500.5 500.5 L 0.5 500.5 L 0.5 0.5" fill-opacity="1"/><rect fill="#FFFFFF" stroke="none" x="43" y="27" width="427" height="428" transform="matrix(1, 0, 0, 1, 0.5, 0.5)"/><path fill="rgb(255,255,255)" stroke="none" paint-order="stroke" d="M 43.5 27.5 L 470.5 27.5 L 470.5 455.5 L 43.5 455.5 L 43.5 27.5" fill-opacity="1"/><path fill="none" stroke="rgb(229,229,229)" paint-order="fill" d="M 43.5 27.5 L 470.5 27.5 L 470.5 455.5 L 43.5 455.5 L 43.5 27.5" stroke-opacity="1" stroke-linejoin="bevel" stroke-miterlimit="10" stroke-dasharray=""/><path fill="none" stroke="rgb(229,229,229)" paint-order="fill" d="M 62.5 455.5 L 62.5 27.5 M 130.5 455.5 L 130.5 27.5 M 198.5 455.5 L 198.5 27.5 M 266.5 455.5 L 266.5 27.5 M 335.5 455.5 L 335.5 27.5 M 403.5 455.5 L 403.5 27.5" stroke-opacity="1" stroke-linejoin="bevel" stroke-miterlimit="10" stroke-dasharray="" clip-path="url(#cVkibRwtJQRl)"/><path fill="none" stroke="rgb(229,229,229)" paint-order="fill" d="M 43.5 407.5 L 470.5 407.5 M 43.5 309.5 L 470.5 309.5 M 43.5 211.5 L 470.5 211.5 M 43.5 113.5 L 470.5 113.5" stroke-opacity="1" stroke-linejoin="bevel" stroke-miterlimit="10" stroke-dasharray="" clip-path="url(#xlarihfwXWTT)"/><path fill="rgb(173,73,74)" stroke="rgb(255,255,255)" paint-order="fill" d="M 308.90972900390625 299.09405517578125 A 3.5 3.5 0 0 1 301.90972900390625 299.09405517578125 A 3.5 3.5 0 0 1 308.90972900390625 299.09405517578125" fill-opacity="1" clip-path="url(#dUtTBKGRCZHa)" stroke-opacity="1" stroke-linejoin="bevel" stroke-miterlimit="10" stroke-dasharray=""/><path fill="rgb(173,73,74)" stroke="rgb(255,255,255)" paint-order="fill" d="M 270.5887145996094 406.5387268066406 A 3.5 3.5 0 0 1 263.5887145996094 406.5387268066406 A 3.5 3.5 0 0 1 270.5887145996094 406.5387268066406" fill-opacity="1" clip-path="url(#dUtTBKGRCZHa)" stroke-opacity="1" stroke-linejoin="bevel" stroke-miterlimit="10" stroke-dasharray=""/><path fill="rgb(173,73,74)" stroke="rgb(255,255,255)" paint-order="fill" d="M 289.2475891113281 351.09051513671875 A 3.5 3.5 0 0 1 282.2475891113281 351.09051513671875 A 3.5 3.5 0 0 1 289.2475891113281 351.09051513671875" fill-opacity="1" clip-path="url(#dUtTBKGRCZHa)" stroke-opacity="1" stroke-linejoin="bevel" stroke-miterlimit="10" stroke-dasharray=""/><path fill="rgb(173,73,74)" stroke="rgb(255,255,255)" paint-order="fill" d="M 279.74432373046875 384.7244567871094 A 3.5 3.5 0 0 1 272.74432373046875 384.7244567871094 A 3.5 3.5 0 0 1 279.74432373046875 384.7244567871094" fill-opacity="1" clip-path="url(#dUtTBKGRCZHa)" stroke-opacity="1" stroke-linejoin="bevel" stroke-miterlimit="10" stroke-dasharray=""/><path fill="rgb(173,73,74)" stroke="rgb(255,255,255)" paint-order="fill" d="M 254.56065368652344 382.94091796875 A 3.5 3.5 0 0 1 247.56065368652344 382.94091796875 A 3.5 3.5 0 0 1 254.56065368652344 382.94091796875" fill-opacity="1" clip-path="url(#dUtTBKGRCZHa)" stroke-opacity="1" stroke-linejoin="bevel" stroke-miterlimit="10" stroke-dasharray=""/><path fill="rgb(173,73,74)" stroke="rgb(255,255,255)" paint-order="fill" d="M 176.92337036132812 290.3243408203125 A 3.5 3.5 0 0 1 169.92337036132812 290.3243408203125 A 3.5 3.5 0 0 1 176.92337036132812 290.3243408203125" fill-opacity="1" clip-path="url(#dUtTBKGRCZHa)" stroke-opacity="1" stroke-linejoin="bevel" stroke-miterlimit="10" stroke-dasharray=""/><path fill="rgb(173,73,74)" stroke="rgb(255,255,255)" paint-order="fill" d="M 283.40130615234375 384.6004943847656 A 3.5 3.5 0 0 1 276.40130615234375 384.6004943847656 A 3.5 3.5 0 0 1 283.40130615234375 384.6004943847656" fill-opacity="1" clip-path="url(#dUtTBKGRCZHa)" stroke-opacity="1" stroke-linejoin="bevel" stroke-miterlimit="10" stroke-dasharray=""/><path fill="rgb(173,73,74)" stroke="rgb(255,255,255)" paint-order="fill" d="M 203.4340362548828 291.2359924316406 A 3.5 3.5 0 0 1 196.4340362548828 291.2359924316406 A 3.5 3.5 0 0 1 203.4340362548828 291.2359924316406" fill-opacity="1" clip-path="url(#dUtTBKGRCZHa)" stroke-opacity="1" stroke-linejoin="bevel" stroke-miterlimit="10" stroke-dasharray=""/><path fill="rgb(173,73,74)" stroke="rgb(255,255,255)" paint-order="fill" d="M 284.1817321777344 399.0973815917969 A 3.5 3.5 0 0 1 277.1817321777344 399.0973815917969 A 3.5 3.5 0 0 1 284.1817321777344 399.0973815917969" fill-opacity="1" clip-path="url(#dUtTBKGRCZHa)" stroke-opacity="1" stroke-linejoin="bevel" stroke-miterlimit="10" stroke-dasharray=""/><path fill="rgb(173,73,74)" stroke="rgb(255,255,255)" paint-order="fill" d="M 274.58209228515625 395.299560546875 A 3.5 3.5 0 0 1 267.58209228515625 395.299560546875 A 3.5 3.5 0 0 1 274.58209228515625 395.299560546875" fill-opacity="1" clip-path="url(#dUtTBKGRCZHa)" stroke-opacity="1" stroke-linejoin="bevel" stroke-miterlimit="10" stroke-dasharray=""/><path fill="rgb(173,73,74)" stroke="rgb(255,255,255)" paint-order="fill" d="M 340.41534423828125 337.2630920410156 A 3.5 3.5 0 0 1 333.41534423828125 337.2630920410156 A 3.5 3.5 0 0 1 340.41534423828125 337.2630920410156" fill-opacity="1" clip-path="url(#dUtTBKGRCZHa)" stroke-opacity="1" stroke-linejoin="bevel" stroke-miterlimit="10" stroke-dasharray=""/><path fill="rgb(173,73,74)" stroke="rgb(255,255,255)" paint-order="fill" d="M 269.50067138671875 405.02630615234375 A 3.5 3.5 0 0 1 262.50067138671875 405.02630615234375 A 3.5 3.5 0 0 1 269.50067138671875 405.02630615234375" fill-opacity="1" clip-path="url(#dUtTBKGRCZHa)" stroke-opacity="1" stroke-linejoin="bevel" stroke-miterlimit="10" stroke-dasharray=""/><path fill="rgb(173,73,74)" stroke="rgb(255,255,255)" paint-order="fill" d="M 255.44650268554688 371.2892150878906 A 3.5 3.5 0 0 1 248.44650268554688 371.2892150878906 A 3.5 3.5 0 0 1 255.44650268554688 371.2892150878906" fill-opacity="1" clip-path="url(#dUtTBKGRCZHa)" stroke-opacity="1" stroke-linejoin="bevel" stroke-miterlimit="10" stroke-dasharray=""/><path fill="rgb(173,73,74)" stroke="rgb(255,255,255)" paint-order="fill" d="M 262.1676330566406 398.8256530761719 A 3.5 3.5 0 0 1 255.16763305664062 398.8256530761719 A 3.5 3.5 0 0 1 262.1676330566406 398.8256530761719" fill-opacity="1" clip-path="url(#dUtTBKGRCZHa)" stroke-opacity="1" stroke-linejoin="bevel" stroke-miterlimit="10" stroke-dasharray=""/><path fill="rgb(173,73,74)" stroke="rgb(255,255,255)" paint-order="fill" d="M 277.5799865722656 392.96417236328125 A 3.5 3.5 0 0 1 270.5799865722656 392.96417236328125 A 3.5 3.5 0 0 1 277.5799865722656 392.96417236328125" fill-opacity="1" clip-path="url(#dUtTBKGRCZHa)" stroke-opacity="1" stroke-linejoin="bevel" stroke-miterlimit="10" stroke-dasharray=""/><path fill="rgb(173,73,74)" stroke="rgb(255,255,255)" paint-order="fill" d="M 223.6160430908203 259.1949157714844 A 3.5 3.5 0 0 1 216.6160430908203 259.1949157714844 A 3.5 3.5 0 0 1 223.6160430908203 259.1949157714844" fill-opacity="1" clip-path="url(#dUtTBKGRCZHa)" stroke-opacity="1" stroke-linejoin="bevel" stroke-miterlimit="10" stroke-dasharray=""/><path fill="rgb(173,73,74)" stroke="rgb(255,255,255)" paint-order="fill" d="M 203.8043975830078 239.15049743652344 A 3.5 3.5 0 0 1 196.8043975830078 239.15049743652344 A 3.5 3.5 0 0 1 203.8043975830078 239.15049743652344" fill-opacity="1" clip-path="url(#dUtTBKGRCZHa)" stroke-opacity="1" stroke-linejoin="bevel" stroke-miterlimit="10" stroke-dasharray=""/><path fill="rgb(173,73,74)" stroke="rgb(255,255,255)" paint-order="fill" d="M 280.5378112792969 376.36322021484375 A 3.5 3.5 0 0 1 273.5378112792969 376.36322021484375 A 3.5 3.5 0 0 1 280.5378112792969 376.36322021484375" fill-opacity="1" clip-path="url(#dUtTBKGRCZHa)" stroke-opacity="1" stroke-linejoin="bevel" stroke-miterlimit="10" stroke-dasharray=""/><path fill="rgb(173,73,74)" stroke="rgb(255,255,255)" paint-order="fill" d="M 272.6296081542969 405.73138427734375 A 3.5 3.5 0 0 1 265.6296081542969 405.73138427734375 A 3.5 3.5 0 0 1 272.6296081542969 405.73138427734375" fill-opacity="1" clip-path="url(#dUtTBKGRCZHa)" stroke-opacity="1" stroke-linejoin="bevel" stroke-miterlimit="10" stroke-dasharray=""/><path fill="rgb(173,73,74)" stroke="rgb(255,255,255)" paint-order="fill" d="M 261.403076171875 398.2920837402344 A 3.5 3.5 0 0 1 254.403076171875 398.2920837402344 A 3.5 3.5 0 0 1 261.403076171875 398.2920837402344" fill-opacity="1" clip-path="url(#dUtTBKGRCZHa)" stroke-opacity="1" stroke-linejoin="bevel" stroke-miterlimit="10" stroke-dasharray=""/><path fill="rgb(173,73,74)" stroke="rgb(255,255,255)" paint-order="fill" d="M 229.65322875976562 370.3248291015625 A 3.5 3.5 0 0 1 222.65322875976562 370.3248291015625 A 3.5 3.5 0 0 1 229.65322875976562 370.3248291015625" fill-opacity="1" clip-path="url(#dUtTBKGRCZHa)" stroke-opacity="1" stroke-linejoin="bevel" stroke-miterlimit="10" stroke-dasharray=""/><path fill="rgb(173,73,74)" stroke="rgb(255,255,255)" paint-order="fill" d="M 303.7765808105469 381.0641174316406 A 3.5 3.5 0 0 1 296.7765808105469 381.0641174316406 A 3.5 3.5 0 0 1 303.7765808105469 381.0641174316406" fill-opacity="1" clip-path="url(#dUtTBKGRCZHa)" stroke-opacity="1" stroke-linejoin="bevel" stroke-miterlimit="10" stroke-dasharray=""/><path fill="rgb(173,73,74)" stroke="rgb(255,255,255)" paint-order="fill" d="M 243.2217254638672 336.2231140136719 A 3.5 3.5 0 0 1 236.2217254638672 336.2231140136719 A 3.5 3.5 0 0 1 243.2217254638672 336.2231140136719" fill-opacity="1" clip-path="url(#dUtTBKGRCZHa)" stroke-opacity="1" stroke-linejoin="bevel" stroke-miterlimit="10" stroke-dasharray=""/><path fill="rgb(173,73,74)" stroke="rgb(255,255,255)" paint-order="fill" d="M 250.614990234375 377.1500549316406 A 3.5 3.5 0 0 1 243.614990234375 377.1500549316406 A 3.5 3.5 0 0 1 250.614990234375 377.1500549316406" fill-opacity="1" clip-path="url(#dUtTBKGRCZHa)" stroke-opacity="1" stroke-linejoin="bevel" stroke-miterlimit="10" stroke-dasharray=""/><path fill="rgb(173,73,74)" stroke="rgb(255,255,255)" paint-order="fill" d="M 262.354736328125 395.44158935546875 A 3.5 3.5 0 0 1 255.354736328125 395.44158935546875 A 3.5 3.5 0 0 1 262.354736328125 395.44158935546875" fill-opacity="1" clip-path="url(#dUtTBKGRCZHa)" stroke-opacity="1" stroke-linejoin="bevel" stroke-miterlimit="10" stroke-dasharray=""/><path fill="rgb(173,73,74)" stroke="rgb(255,255,255)" paint-order="fill" d="M 266.44256591796875 398.2852783203125 A 3.5 3.5 0 0 1 259.44256591796875 398.2852783203125 A 3.5 3.5 0 0 1 266.44256591796875 398.2852783203125" fill-opacity="1" clip-path="url(#dUtTBKGRCZHa)" stroke-opacity="1" stroke-linejoin="bevel" stroke-miterlimit="10" stroke-dasharray=""/><path fill="rgb(173,73,74)" stroke="rgb(255,255,255)" paint-order="fill" d="M 103.06830596923828 356.7116394042969 A 3.5 3.5 0 0 1 96.06830596923828 356.7116394042969 A 3.5 3.5 0 0 1 103.06830596923828 356.7116394042969" fill-opacity="1" clip-path="url(#dUtTBKGRCZHa)" stroke-opacity="1" stroke-linejoin="bevel" stroke-miterlimit="10" stroke-dasharray=""/><path fill="rgb(173,73,74)" stroke="rgb(255,255,255)" paint-order="fill" d="M 303.7679443359375 193.34869384765625 A 3.5 3.5 0 0 1 296.7679443359375 193.34869384765625 A 3.5 3.5 0 0 1 303.7679443359375 193.34869384765625" fill-opacity="1" clip-path="url(#dUtTBKGRCZHa)" stroke-opacity="1" stroke-linejoin="bevel" stroke-miterlimit="10" stroke-dasharray=""/><path fill="rgb(173,73,74)" stroke="rgb(255,255,255)" paint-order="fill" d="M 81.11672973632812 216.50482177734375 A 3.5 3.5 0 0 1 74.11672973632812 216.50482177734375 A 3.5 3.5 0 0 1 81.11672973632812 216.50482177734375" fill-opacity="1" clip-path="url(#dUtTBKGRCZHa)" stroke-opacity="1" stroke-linejoin="bevel" stroke-miterlimit="10" stroke-dasharray=""/><path fill="rgb(173,73,74)" stroke="rgb(255,255,255)" paint-order="fill" d="M 256.03851318359375 385.53216552734375 A 3.5 3.5 0 0 1 249.03851318359375 385.53216552734375 A 3.5 3.5 0 0 1 256.03851318359375 385.53216552734375" fill-opacity="1" clip-path="url(#dUtTBKGRCZHa)" stroke-opacity="1" stroke-linejoin="bevel" stroke-miterlimit="10" stroke-dasharray=""/><path fill="rgb(173,73,74)" stroke="rgb(255,255,255)" paint-order="fill" d="M 369.1337890625 76.46126556396484 A 3.5 3.5 0 0 1 362.1337890625 76.46126556396484 A 3.5 3.5 0 0 1 369.1337890625 76.46126556396484" fill-opacity="1" clip-path="url(#dUtTBKGRCZHa)" stroke-opacity="1" stroke-linejoin="bevel" stroke-miterlimit="10" stroke-dasharray=""/><path fill="rgb(173,73,74)" stroke="rgb(255,255,255)" paint-order="fill" d="M 283.16107177734375 388.6120910644531 A 3.5 3.5 0 0 1 276.16107177734375 388.6120910644531 A 3.5 3.5 0 0 1 283.16107177734375 388.6120910644531" fill-opacity="1" clip-path="url(#dUtTBKGRCZHa)" stroke-opacity="1" stroke-linejoin="bevel" stroke-miterlimit="10" stroke-dasharray=""/><path fill="rgb(173,73,74)" stroke="rgb(255,255,255)" paint-order="fill" d="M 271.5063781738281 405.04638671875 A 3.5 3.5 0 0 1 264.5063781738281 405.04638671875 A 3.5 3.5 0 0 1 271.5063781738281 405.04638671875" fill-opacity="1" clip-path="url(#dUtTBKGRCZHa)" stroke-opacity="1" stroke-linejoin="bevel" stroke-miterlimit="10" stroke-dasharray=""/><path fill="rgb(173,73,74)" stroke="rgb(255,255,255)" paint-order="fill" d="M 269.0946350097656 405.2691955566406 A 3.5 3.5 0 0 1 262.0946350097656 405.2691955566406 A 3.5 3.5 0 0 1 269.0946350097656 405.2691955566406" fill-opacity="1" clip-path="url(#dUtTBKGRCZHa)" stroke-opacity="1" stroke-linejoin="bevel" stroke-miterlimit="10" stroke-dasharray=""/><path fill="rgb(173,73,74)" stroke="rgb(255,255,255)" paint-order="fill" d="M 243.6501007080078 372.83807373046875 A 3.5 3.5 0 0 1 236.6501007080078 372.83807373046875 A 3.5 3.5 0 0 1 243.6501007080078 372.83807373046875" fill-opacity="1" clip-path="url(#dUtTBKGRCZHa)" stroke-opacity="1" stroke-linejoin="bevel" stroke-miterlimit="10" stroke-dasharray=""/><path fill="rgb(173,73,74)" stroke="rgb(255,255,255)" paint-order="fill" d="M 257.2301940917969 395.93585205078125 A 3.5 3.5 0 0 1 250.23019409179688 395.93585205078125 A 3.5 3.5 0 0 1 257.2301940917969 395.93585205078125" fill-opacity="1" clip-path="url(#dUtTBKGRCZHa)" stroke-opacity="1" stroke-linejoin="bevel" stroke-miterlimit="10" stroke-dasharray=""/><path fill="rgb(173,73,74)" stroke="rgb(255,255,255)" paint-order="fill" d="M 284.9784240722656 357.2314147949219 A 3.5 3.5 0 0 1 277.9784240722656 357.2314147949219 A 3.5 3.5 0 0 1 284.9784240722656 357.2314147949219" fill-opacity="1" clip-path="url(#dUtTBKGRCZHa)" stroke-opacity="1" stroke-linejoin="bevel" stroke-miterlimit="10" stroke-dasharray=""/><path fill="rgb(173,73,74)" stroke="rgb(255,255,255)" paint-order="fill" d="M 264.3312683105469 399.87420654296875 A 3.5 3.5 0 0 1 257.3312683105469 399.87420654296875 A 3.5 3.5 0 0 1 264.3312683105469 399.87420654296875" fill-opacity="1" clip-path="url(#dUtTBKGRCZHa)" stroke-opacity="1" stroke-linejoin="bevel" stroke-miterlimit="10" stroke-dasharray=""/><path fill="rgb(173,73,74)" stroke="rgb(255,255,255)" paint-order="fill" d="M 278.34088134765625 392.8180236816406 A 3.5 3.5 0 0 1 271.34088134765625 392.8180236816406 A 3.5 3.5 0 0 1 278.34088134765625 392.8180236816406" fill-opacity="1" clip-path="url(#dUtTBKGRCZHa)" stroke-opacity="1" stroke-linejoin="bevel" stroke-miterlimit="10" stroke-dasharray=""/><path fill="rgb(173,73,74)" stroke="rgb(255,255,255)" paint-order="fill" d="M 279.3119812011719 386.2223815917969 A 3.5 3.5 0 0 1 272.3119812011719 386.2223815917969 A 3.5 3.5 0 0 1 279.3119812011719 386.2223815917969" fill-opacity="1" clip-path="url(#dUtTBKGRCZHa)" stroke-opacity="1" stroke-linejoin="bevel" stroke-miterlimit="10" stroke-dasharray=""/><path fill="rgb(173,73,74)" stroke="rgb(255,255,255)" paint-order="fill" d="M 413.529296875 199.16468811035156 A 3.5 3.5 0 0 1 406.529296875 199.16468811035156 A 3.5 3.5 0 0 1 413.529296875 199.16468811035156" fill-opacity="1" clip-path="url(#dUtTBKGRCZHa)" stroke-opacity="1" stroke-linejoin="bevel" stroke-miterlimit="10" stroke-dasharray=""/><path fill="rgb(173,73,74)" stroke="rgb(255,255,255)" paint-order="fill" d="M 311.7789611816406 290.8424377441406 A 3.5 3.5 0 0 1 304.7789611816406 290.8424377441406 A 3.5 3.5 0 0 1 311.7789611816406 290.8424377441406" fill-opacity="1" clip-path="url(#dUtTBKGRCZHa)" stroke-opacity="1" stroke-linejoin="bevel" stroke-miterlimit="10" stroke-dasharray=""/><path fill="rgb(173,73,74)" stroke="rgb(255,255,255)" paint-order="fill" d="M 439.8832702636719 353.7635498046875 A 3.5 3.5 0 0 1 432.8832702636719 353.7635498046875 A 3.5 3.5 0 0 1 439.8832702636719 353.7635498046875" fill-opacity="1" clip-path="url(#dUtTBKGRCZHa)" stroke-opacity="1" stroke-linejoin="bevel" stroke-miterlimit="10" stroke-dasharray=""/><path fill="rgb(173,73,74)" stroke="rgb(255,255,255)" paint-order="fill" d="M 190.23802185058594 292.9407653808594 A 3.5 3.5 0 0 1 183.23802185058594 292.9407653808594 A 3.5 3.5 0 0 1 190.23802185058594 292.9407653808594" fill-opacity="1" clip-path="url(#dUtTBKGRCZHa)" stroke-opacity="1" stroke-linejoin="bevel" stroke-miterlimit="10" stroke-dasharray=""/><path fill="rgb(173,73,74)" stroke="rgb(255,255,255)" paint-order="fill" d="M 299.4484558105469 334.27783203125 A 3.5 3.5 0 0 1 292.4484558105469 334.27783203125 A 3.5 3.5 0 0 1 299.4484558105469 334.27783203125" fill-opacity="1" clip-path="url(#dUtTBKGRCZHa)" stroke-opacity="1" stroke-linejoin="bevel" stroke-miterlimit="10" stroke-dasharray=""/><path fill="rgb(173,73,74)" stroke="rgb(255,255,255)" paint-order="fill" d="M 310.0871887207031 347.8537292480469 A 3.5 3.5 0 0 1 303.0871887207031 347.8537292480469 A 3.5 3.5 0 0 1 310.0871887207031 347.8537292480469" fill-opacity="1" clip-path="url(#dUtTBKGRCZHa)" stroke-opacity="1" stroke-linejoin="bevel" stroke-miterlimit="10" stroke-dasharray=""/><path fill="rgb(173,73,74)" stroke="rgb(255,255,255)" paint-order="fill" d="M 322.29302978515625 339.9266662597656 A 3.5 3.5 0 0 1 315.29302978515625 339.9266662597656 A 3.5 3.5 0 0 1 322.29302978515625 339.9266662597656" fill-opacity="1" clip-path="url(#dUtTBKGRCZHa)" stroke-opacity="1" stroke-linejoin="bevel" stroke-miterlimit="10" stroke-dasharray=""/><path fill="rgb(173,73,74)" stroke="rgb(255,255,255)" paint-order="fill" d="M 263.03533935546875 383.0245666503906 A 3.5 3.5 0 0 1 256.03533935546875 383.0245666503906 A 3.5 3.5 0 0 1 263.03533935546875 383.0245666503906" fill-opacity="1" clip-path="url(#dUtTBKGRCZHa)" stroke-opacity="1" stroke-linejoin="bevel" stroke-miterlimit="10" stroke-dasharray=""/><path fill="rgb(173,73,74)" stroke="rgb(255,255,255)" paint-order="fill" d="M 375.1608581542969 216.81390380859375 A 3.5 3.5 0 0 1 368.1608581542969 216.81390380859375 A 3.5 3.5 0 0 1 375.1608581542969 216.81390380859375" fill-opacity="1" clip-path="url(#dUtTBKGRCZHa)" stroke-opacity="1" stroke-linejoin="bevel" stroke-miterlimit="10" stroke-dasharray=""/><path fill="rgb(173,73,74)" stroke="rgb(255,255,255)" paint-order="fill" d="M 268.19091796875 403.6849365234375 A 3.5 3.5 0 0 1 261.19091796875 403.6849365234375 A 3.5 3.5 0 0 1 268.19091796875 403.6849365234375" fill-opacity="1" clip-path="url(#dUtTBKGRCZHa)" stroke-opacity="1" stroke-linejoin="bevel" stroke-miterlimit="10" stroke-dasharray=""/><path fill="rgb(173,73,74)" stroke="rgb(255,255,255)" paint-order="fill" d="M 280.8013000488281 385.7677917480469 A 3.5 3.5 0 0 1 273.8013000488281 385.7677917480469 A 3.5 3.5 0 0 1 280.8013000488281 385.7677917480469" fill-opacity="1" clip-path="url(#dUtTBKGRCZHa)" stroke-opacity="1" stroke-linejoin="bevel" stroke-miterlimit="10" stroke-dasharray=""/><path fill="rgb(173,73,74)" stroke="rgb(255,255,255)" paint-order="fill" d="M 276.4698486328125 379.5616149902344 A 3.5 3.5 0 0 1 269.4698486328125 379.5616149902344 A 3.5 3.5 0 0 1 276.4698486328125 379.5616149902344" fill-opacity="1" clip-path="url(#dUtTBKGRCZHa)" stroke-opacity="1" stroke-linejoin="bevel" stroke-miterlimit="10" stroke-dasharray=""/><path fill="rgb(173,73,74)" stroke="rgb(255,255,255)" paint-order="fill" d="M 324.5782470703125 284.37664794921875 A 3.5 3.5 0 0 1 317.5782470703125 284.37664794921875 A 3.5 3.5 0 0 1 324.5782470703125 284.37664794921875" fill-opacity="1" clip-path="url(#dUtTBKGRCZHa)" stroke-opacity="1" stroke-linejoin="bevel" stroke-miterlimit="10" stroke-dasharray=""/><path fill="rgb(173,73,74)" stroke="rgb(255,255,255)" paint-order="fill" d="M 207.61370849609375 286.7190856933594 A 3.5 3.5 0 0 1 200.61370849609375 286.7190856933594 A 3.5 3.5 0 0 1 207.61370849609375 286.7190856933594" fill-opacity="1" clip-path="url(#dUtTBKGRCZHa)" stroke-opacity="1" stroke-linejoin="bevel" stroke-miterlimit="10" stroke-dasharray=""/><path fill="rgb(173,73,74)" stroke="rgb(255,255,255)" paint-order="fill" d="M 263.9677429199219 393.5636291503906 A 3.5 3.5 0 0 1 256.9677429199219 393.5636291503906 A 3.5 3.5 0 0 1 263.9677429199219 393.5636291503906" fill-opacity="1" clip-path="url(#dUtTBKGRCZHa)" stroke-opacity="1" stroke-linejoin="bevel" stroke-miterlimit="10" stroke-dasharray=""/><path fill="rgb(173,73,74)" stroke="rgb(255,255,255)" paint-order="fill" d="M 273.74774169921875 403.00872802734375 A 3.5 3.5 0 0 1 266.74774169921875 403.00872802734375 A 3.5 3.5 0 0 1 273.74774169921875 403.00872802734375" fill-opacity="1" clip-path="url(#dUtTBKGRCZHa)" stroke-opacity="1" stroke-linejoin="bevel" stroke-miterlimit="10" stroke-dasharray=""/><path fill="rgb(173,73,74)" stroke="rgb(255,255,255)" paint-order="fill" d="M 226.6543426513672 350.57440185546875 A 3.5 3.5 0 0 1 219.6543426513672 350.57440185546875 A 3.5 3.5 0 0 1 226.6543426513672 350.57440185546875" fill-opacity="1" clip-path="url(#dUtTBKGRCZHa)" stroke-opacity="1" stroke-linejoin="bevel" stroke-miterlimit="10" stroke-dasharray=""/><path fill="rgb(0,128,0)" stroke="none" paint-order="stroke" d="M 43.5 27.5 L 198.62164306640625 27.5 L 198.62164306640625 455.5 L 43.5 455.5 L 43.5 27.5" fill-opacity="0.10196078431372549" clip-path="url(#tKgzXIJBZclH)"/><path fill="rgb(0,128,0)" stroke="none" paint-order="stroke" d="M 335.08856201171875 27.5 L 470.5 27.5 L 470.5 455.5 L 335.08856201171875 455.5 L 335.08856201171875 27.5" fill-opacity="0.10196078431372549" clip-path="url(#tlZrHpIbTHrw)"/><path fill="none" stroke="rgb(0,0,0)" paint-order="fill" d="M 43.5 455.5 L 470.5 455.5" stroke-opacity="1" stroke-linejoin="bevel" stroke-miterlimit="10" stroke-dasharray=""/><path fill="none" stroke="rgb(0,0,0)" paint-order="fill" d="M 62.5 461.5 L 62.5 453.5 M 130.5 461.5 L 130.5 453.5 M 198.5 461.5 L 198.5 453.5 M 266.5 461.5 L 266.5 453.5 M 335.5 461.5 L 335.5 453.5 M 403.5 461.5 L 403.5 453.5" stroke-opacity="1" stroke-linejoin="bevel" stroke-miterlimit="10" stroke-dasharray=""/><path fill="none" stroke="rgb(0,0,0)" paint-order="fill" d="M 48.5 459.5 L 48.5 455.5 M 62.5 459.5 L 62.5 455.5 M 75.5 459.5 L 75.5 455.5 M 89.5 459.5 L 89.5 455.5 M 103.5 459.5 L 103.5 455.5 M 116.5 459.5 L 116.5 455.5 M 130.5 459.5 L 130.5 455.5 M 144.5 459.5 L 144.5 455.5 M 157.5 459.5 L 157.5 455.5 M 171.5 459.5 L 171.5 455.5 M 184.5 459.5 L 184.5 455.5 M 198.5 459.5 L 198.5 455.5 M 212.5 459.5 L 212.5 455.5 M 225.5 459.5 L 225.5 455.5 M 239.5 459.5 L 239.5 455.5 M 253.5 459.5 L 253.5 455.5 M 266.5 459.5 L 266.5 455.5 M 280.5 459.5 L 280.5 455.5 M 294.5 459.5 L 294.5 455.5 M 307.5 459.5 L 307.5 455.5 M 321.5 459.5 L 321.5 455.5 M 335.5 459.5 L 335.5 455.5 M 348.5 459.5 L 348.5 455.5 M 362.5 459.5 L 362.5 455.5 M 376.5 459.5 L 376.5 455.5 M 389.5 459.5 L 389.5 455.5 M 403.5 459.5 L 403.5 455.5 M 416.5 459.5 L 416.5 455.5 M 430.5 459.5 L 430.5 455.5 M 444.5 459.5 L 444.5 455.5 M 457.5 459.5 L 457.5 455.5" stroke-opacity="1" stroke-linejoin="bevel" stroke-miterlimit="10" stroke-dasharray=""/><text fill="rgb(68,68,68)" stroke="none" font-family="helvetica" font-size="11px" font-style="normal" font-weight="normal" text-decoration="normal" x="55.38398361206055" y="473.89013671875" text-anchor="start" dominant-baseline="alphabetic" transform="matrix(1, 0, 0, 1, 0.5, 0.5)" fill-opacity="1">−3</text><text fill="rgb(68,68,68)" stroke="none" font-family="helvetica" font-size="11px" font-style="normal" font-weight="normal" text-decoration="normal" x="123.617431640625" y="473.89013671875" text-anchor="start" dominant-baseline="alphabetic" transform="matrix(1, 0, 0, 1, 0.5, 0.5)" fill-opacity="1">−2</text><text fill="rgb(68,68,68)" stroke="none" font-family="helvetica" font-size="11px" font-style="normal" font-weight="normal" text-decoration="normal" x="191.85089111328125" y="473.89013671875" text-anchor="start" dominant-baseline="alphabetic" transform="matrix(1, 0, 0, 1, 0.5, 0.5)" fill-opacity="1">−1</text><text fill="rgb(68,68,68)" stroke="none" font-family="helvetica" font-size="11px" font-style="normal" font-weight="normal" text-decoration="normal" x="263.2962646484375" y="473.89013671875" text-anchor="start" dominant-baseline="alphabetic" transform="matrix(1, 0, 0, 1, 0.5, 0.5)" fill-opacity="1">0</text><text fill="rgb(68,68,68)" stroke="none" font-family="helvetica" font-size="11px" font-style="normal" font-weight="normal" text-decoration="normal" x="331.52972412109375" y="473.89013671875" text-anchor="start" dominant-baseline="alphabetic" transform="matrix(1, 0, 0, 1, 0.5, 0.5)" fill-opacity="1">1</text><text fill="rgb(68,68,68)" stroke="none" font-family="helvetica" font-size="11px" font-style="normal" font-weight="normal" text-decoration="normal" x="399.7631530761719" y="473.89013671875" text-anchor="start" dominant-baseline="alphabetic" transform="matrix(1, 0, 0, 1, 0.5, 0.5)" fill-opacity="1">2</text><text fill="rgb(68,68,68)" stroke="none" font-family="helvetica" font-size="13px" font-style="italic" font-weight="normal" text-decoration="normal" x="204.1064453125" y="493.89013671875" text-anchor="start" dominant-baseline="alphabetic" transform="matrix(1, 0, 0, 1, 0.5, 0.5)" fill-opacity="1">log2 (fold-change)</text><path fill="none" stroke="rgb(0,0,0)" paint-order="fill" d="M 43.5 455.5 L 43.5 27.5" stroke-opacity="1" stroke-linejoin="bevel" stroke-miterlimit="10" stroke-dasharray=""/><path fill="none" stroke="rgb(0,0,0)" paint-order="fill" d="M 37.5 407.5 L 45.5 407.5 M 37.5 309.5 L 45.5 309.5 M 37.5 211.5 L 45.5 211.5 M 37.5 113.5 L 45.5 113.5" stroke-opacity="1" stroke-linejoin="bevel" stroke-miterlimit="10" stroke-dasharray=""/><path fill="none" stroke="rgb(0,0,0)" paint-order="fill" d="M 39.5 426.5 L 43.5 426.5 M 39.5 446.5 L 43.5 446.5 M 39.5 407.5 L 43.5 407.5 M 39.5 387.5 L 43.5 387.5 M 39.5 367.5 L 43.5 367.5 M 39.5 348.5 L 43.5 348.5 M 39.5 328.5 L 43.5 328.5 M 39.5 309.5 L 43.5 309.5 M 39.5 289.5 L 43.5 289.5 M 39.5 269.5 L 43.5 269.5 M 39.5 250.5 L 43.5 250.5 M 39.5 230.5 L 43.5 230.5 M 39.5 211.5 L 43.5 211.5 M 39.5 191.5 L 43.5 191.5 M 39.5 172.5 L 43.5 172.5 M 39.5 152.5 L 43.5 152.5 M 39.5 132.5 L 43.5 132.5 M 39.5 113.5 L 43.5 113.5 M 39.5 93.5 L 43.5 93.5 M 39.5 74.5 L 43.5 74.5 M 39.5 54.5 L 43.5 54.5 M 39.5 34.5 L 43.5 34.5" stroke-opacity="1" stroke-linejoin="bevel" stroke-miterlimit="10" stroke-dasharray=""/><text fill="rgb(68,68,68)" stroke="none" font-family="helvetica" font-size="11px" font-style="normal" font-weight="normal" text-decoration="normal" x="25.88232421875" y="410.47857666015625" text-anchor="start" dominant-baseline="alphabetic" transform="matrix(1, 0, 0, 1, 0.5, 0.5)" fill-opacity="1">0</text><text fill="rgb(68,68,68)" stroke="none" font-family="helvetica" font-size="11px" font-style="normal" font-weight="normal" text-decoration="normal" x="25.88232421875" y="312.5560302734375" text-anchor="start" dominant-baseline="alphabetic" transform="matrix(1, 0, 0, 1, 0.5, 0.5)" fill-opacity="1">1</text><text fill="rgb(68,68,68)" stroke="none" font-family="helvetica" font-size="11px" font-style="normal" font-weight="normal" text-decoration="normal" x="25.88232421875" y="214.63351440429688" text-anchor="start" dominant-baseline="alphabetic" transform="matrix(1, 0, 0, 1, 0.5, 0.5)" fill-opacity="1">2</text><text fill="rgb(68,68,68)" stroke="none" font-family="helvetica" font-size="11px" font-style="normal" font-weight="normal" text-decoration="normal" x="25.88232421875" y="116.71099090576172" text-anchor="start" dominant-baseline="alphabetic" transform="matrix(1, 0, 0, 1, 0.5, 0.5)" fill-opacity="1">3</text><text fill="rgb(68,68,68)" stroke="none" font-family="helvetica" font-size="13px" font-style="italic" font-weight="normal" text-decoration="normal" x="-27.639892578125" y="238" text-anchor="start" dominant-baseline="alphabetic" transform="matrix(6.123233995736766e-17, -1, 1, 6.123233995736766e-17, -222.61767578125, 259.38232421875)" fill-opacity="1">-log10 (p-value)</text><g clip-path="url(#XmCplDfVVDDv)"><text fill="rgb(68,68,68)" stroke="none" font-family="helvetica" font-size="16px" font-style="normal" font-weight="normal" text-decoration="normal" x="370.1337890625" y="66.96126556396484" text-anchor="start" dominant-baseline="alphabetic" transform="matrix(1, 0, 0, 1, 0.5, 0.5)" fill-opacity="1">LOC410087</text></g><text fill="rgb(68,68,68)" stroke="none" font-family="helvetica" font-size="13px" font-style="normal" font-weight="bold" text-decoration="normal" x="43" y="19" text-anchor="start" dominant-baseline="alphabetic" transform="matrix(1, 0, 0, 1, 0.5, 0.5)" fill-opacity="1">Hygiene-associated genes under dual infection</text></svg>