<svg version="1.1" xmlns="http://www.w3.org/2000/svg" width="500" height="500"><defs><clipPath id="AzVWJpPRQJyb"><path fill="none" stroke="none" d="M 43.5 27.5 L 470.5 27.5 L 470.5 455.5 L 43.5 455.5 L 43.5 27.5"/></clipPath><clipPath id="JcbyffPMDEKN"><path fill="none" stroke="none" d="M 43.5 27.5 L 470.5 27.5 L 470.5 455.5 L 43.5 455.5 L 43.5 27.5"/></clipPath><clipPath id="vtorkPkskvnG"><path fill="none" stroke="none" d="M 43.5 27.5 L 470.5 27.5 L 470.5 455.5 L 43.5 455.5 L 43.5 27.5"/></clipPath><clipPath id="LbgTgCfhwyhH"><path fill="none" stroke="none" d="M 43.5 27.5 L 470.5 27.5 L 470.5 455.5 L 43.5 455.5 L 43.5 27.5"/></clipPath><clipPath id="zGDmNcZRBxOs"><path fill="none" stroke="none" d="M 43.5 27.5 L 470.5 27.5 L 470.5 455.5 L 43.5 455.5 L 43.5 27.5"/></clipPath><clipPath id="HgyhWyrNTGcS"><path fill="none" stroke="none" d="M 43.5 27.5 L 470.5 27.5 L 470.5 455.5 L 43.5 455.5 L 43.5 27.5"/></clipPath><clipPath id="zXeGRWyKXZSm"><path fill="none" stroke="none" d="M 43.5 27.5 L 470.5 27.5 L 470.5 455.5 L 43.5 455.5 L 43.5 27.5"/></clipPath></defs><path fill="rgb(255,255,255)" stroke="none" paint-order="stroke" d="M 0.5 0.5 L 500.5 0.5 L 500.5 500.5 L 0.5 500.5 L 0.5 0.5" fill-opacity="1"/><rect fill="#FFFFFF" stroke="none" x="43" y="27" width="427" height="428" transform="matrix(1, 0, 0, 1, 0.5, 0.5)"/><path fill="rgb(255,255,255)" stroke="none" paint-order="stroke" d="M 43.5 27.5 L 470.5 27.5 L 470.5 455.5 L 43.5 455.5 L 43.5 27.5" fill-opacity="1"/><path fill="none" stroke="rgb(229,229,229)" paint-order="fill" d="M 43.5 27.5 L 470.5 27.5 L 470.5 455.5 L 43.5 455.5 L 43.5 27.5" stroke-opacity="1" stroke-linejoin="bevel" stroke-miterlimit="10" stroke-dasharray=""/><path fill="none" stroke="rgb(229,229,229)" paint-order="fill" d="M 75.5 455.5 L 75.5 27.5 M 174.5 455.5 L 174.5 27.5 M 274.5 455.5 L 274.5 27.5 M 374.5 455.5 L 374.5 27.5" stroke-opacity="1" stroke-linejoin="bevel" stroke-miterlimit="10" stroke-dasharray="" clip-path="url(#AzVWJpPRQJyb)"/><path fill="none" stroke="rgb(229,229,229)" paint-order="fill" d="M 43.5 420.5 L 470.5 420.5 M 43.5 349.5 L 470.5 349.5 M 43.5 278.5 L 470.5 278.5 M 43.5 207.5 L 470.5 207.5 M 43.5 136.5 L 470.5 136.5 M 43.5 65.5 L 470.5 65.5" stroke-opacity="1" stroke-linejoin="bevel" stroke-miterlimit="10" stroke-dasharray="" clip-path="url(#JcbyffPMDEKN)"/><path fill="rgb(189,158,57)" stroke="rgb(255,255,255)" paint-order="fill" d="M 204.2529296875 338.69525146484375 A 3.5 3.5 0 0 1 197.2529296875 338.69525146484375 A 3.5 3.5 0 0 1 204.2529296875 338.69525146484375" fill-opacity="1" clip-path="url(#vtorkPkskvnG)" stroke-opacity="1" stroke-linejoin="bevel" stroke-miterlimit="10" stroke-dasharray=""/><path fill="rgb(189,158,57)" stroke="rgb(255,255,255)" paint-order="fill" d="M 177.97161865234375 419.3323669433594 A 3.5 3.5 0 0 1 170.97161865234375 419.3323669433594 A 3.5 3.5 0 0 1 177.97161865234375 419.3323669433594" fill-opacity="1" clip-path="url(#vtorkPkskvnG)" stroke-opacity="1" stroke-linejoin="bevel" stroke-miterlimit="10" stroke-dasharray=""/><path fill="rgb(189,158,57)" stroke="rgb(255,255,255)" paint-order="fill" d="M 189.52642822265625 384.9005126953125 A 3.5 3.5 0 0 1 182.52642822265625 384.9005126953125 A 3.5 3.5 0 0 1 189.52642822265625 384.9005126953125" fill-opacity="1" clip-path="url(#vtorkPkskvnG)" stroke-opacity="1" stroke-linejoin="bevel" stroke-miterlimit="10" stroke-dasharray=""/><path fill="rgb(189,158,57)" stroke="rgb(255,255,255)" paint-order="fill" d="M 177.98715209960938 419.464111328125 A 3.5 3.5 0 0 1 170.98715209960938 419.464111328125 A 3.5 3.5 0 0 1 177.98715209960938 419.464111328125" fill-opacity="1" clip-path="url(#vtorkPkskvnG)" stroke-opacity="1" stroke-linejoin="bevel" stroke-miterlimit="10" stroke-dasharray=""/><path fill="rgb(189,158,57)" stroke="rgb(255,255,255)" paint-order="fill" d="M 164.60536193847656 394.98614501953125 A 3.5 3.5 0 0 1 157.60536193847656 394.98614501953125 A 3.5 3.5 0 0 1 164.60536193847656 394.98614501953125" fill-opacity="1" clip-path="url(#vtorkPkskvnG)" stroke-opacity="1" stroke-linejoin="bevel" stroke-miterlimit="10" stroke-dasharray=""/><path fill="rgb(189,158,57)" stroke="rgb(255,255,255)" paint-order="fill" d="M 162.21676635742188 405.6635437011719 A 3.5 3.5 0 0 1 155.21676635742188 405.6635437011719 A 3.5 3.5 0 0 1 162.21676635742188 405.6635437011719" fill-opacity="1" clip-path="url(#vtorkPkskvnG)" stroke-opacity="1" stroke-linejoin="bevel" stroke-miterlimit="10" stroke-dasharray=""/><path fill="rgb(189,158,57)" stroke="rgb(255,255,255)" paint-order="fill" d="M 201.07933044433594 357.9314880371094 A 3.5 3.5 0 0 1 194.07933044433594 357.9314880371094 A 3.5 3.5 0 0 1 201.07933044433594 357.9314880371094" fill-opacity="1" clip-path="url(#vtorkPkskvnG)" stroke-opacity="1" stroke-linejoin="bevel" stroke-miterlimit="10" stroke-dasharray=""/><path fill="rgb(189,158,57)" stroke="rgb(255,255,255)" paint-order="fill" d="M 141.91307067871094 354.95159912109375 A 3.5 3.5 0 0 1 134.91307067871094 354.95159912109375 A 3.5 3.5 0 0 1 141.91307067871094 354.95159912109375" fill-opacity="1" clip-path="url(#vtorkPkskvnG)" stroke-opacity="1" stroke-linejoin="bevel" stroke-miterlimit="10" stroke-dasharray=""/><path fill="rgb(189,158,57)" stroke="rgb(255,255,255)" paint-order="fill" d="M 175.1302490234375 418.3692626953125 A 3.5 3.5 0 0 1 168.1302490234375 418.3692626953125 A 3.5 3.5 0 0 1 175.1302490234375 418.3692626953125" fill-opacity="1" clip-path="url(#vtorkPkskvnG)" stroke-opacity="1" stroke-linejoin="bevel" stroke-miterlimit="10" stroke-dasharray=""/><path fill="rgb(189,158,57)" stroke="rgb(255,255,255)" paint-order="fill" d="M 183.44129943847656 403.1770935058594 A 3.5 3.5 0 0 1 176.44129943847656 403.1770935058594 A 3.5 3.5 0 0 1 183.44129943847656 403.1770935058594" fill-opacity="1" clip-path="url(#vtorkPkskvnG)" stroke-opacity="1" stroke-linejoin="bevel" stroke-miterlimit="10" stroke-dasharray=""/><path fill="rgb(189,158,57)" stroke="rgb(255,255,255)" paint-order="fill" d="M 186.54302978515625 414.0904846191406 A 3.5 3.5 0 0 1 179.54302978515625 414.0904846191406 A 3.5 3.5 0 0 1 186.54302978515625 414.0904846191406" fill-opacity="1" clip-path="url(#vtorkPkskvnG)" stroke-opacity="1" stroke-linejoin="bevel" stroke-miterlimit="10" stroke-dasharray=""/><path fill="rgb(189,158,57)" stroke="rgb(255,255,255)" paint-order="fill" d="M 183.9706573486328 402.4382629394531 A 3.5 3.5 0 0 1 176.9706573486328 402.4382629394531 A 3.5 3.5 0 0 1 183.9706573486328 402.4382629394531" fill-opacity="1" clip-path="url(#vtorkPkskvnG)" stroke-opacity="1" stroke-linejoin="bevel" stroke-miterlimit="10" stroke-dasharray=""/><path fill="rgb(189,158,57)" stroke="rgb(255,255,255)" paint-order="fill" d="M 175.1338348388672 412.7160949707031 A 3.5 3.5 0 0 1 168.1338348388672 412.7160949707031 A 3.5 3.5 0 0 1 175.1338348388672 412.7160949707031" fill-opacity="1" clip-path="url(#vtorkPkskvnG)" stroke-opacity="1" stroke-linejoin="bevel" stroke-miterlimit="10" stroke-dasharray=""/><path fill="rgb(189,158,57)" stroke="rgb(255,255,255)" paint-order="fill" d="M 198.8952178955078 388.53814697265625 A 3.5 3.5 0 0 1 191.8952178955078 388.53814697265625 A 3.5 3.5 0 0 1 198.8952178955078 388.53814697265625" fill-opacity="1" clip-path="url(#vtorkPkskvnG)" stroke-opacity="1" stroke-linejoin="bevel" stroke-miterlimit="10" stroke-dasharray=""/><path fill="rgb(189,158,57)" stroke="rgb(255,255,255)" paint-order="fill" d="M 184.0511932373047 407.7010498046875 A 3.5 3.5 0 0 1 177.0511932373047 407.7010498046875 A 3.5 3.5 0 0 1 184.0511932373047 407.7010498046875" fill-opacity="1" clip-path="url(#vtorkPkskvnG)" stroke-opacity="1" stroke-linejoin="bevel" stroke-miterlimit="10" stroke-dasharray=""/><path fill="rgb(189,158,57)" stroke="rgb(255,255,255)" paint-order="fill" d="M 139.14013671875 252.9224090576172 A 3.5 3.5 0 0 1 132.14013671875 252.9224090576172 A 3.5 3.5 0 0 1 139.14013671875 252.9224090576172" fill-opacity="1" clip-path="url(#vtorkPkskvnG)" stroke-opacity="1" stroke-linejoin="bevel" stroke-miterlimit="10" stroke-dasharray=""/><path fill="rgb(189,158,57)" stroke="rgb(255,255,255)" paint-order="fill" d="M 170.82484436035156 408.39111328125 A 3.5 3.5 0 0 1 163.82484436035156 408.39111328125 A 3.5 3.5 0 0 1 170.82484436035156 408.39111328125" fill-opacity="1" clip-path="url(#vtorkPkskvnG)" stroke-opacity="1" stroke-linejoin="bevel" stroke-miterlimit="10" stroke-dasharray=""/><path fill="rgb(189,158,57)" stroke="rgb(255,255,255)" paint-order="fill" d="M 171.64776611328125 397.67864990234375 A 3.5 3.5 0 0 1 164.64776611328125 397.67864990234375 A 3.5 3.5 0 0 1 171.64776611328125 397.67864990234375" fill-opacity="1" clip-path="url(#vtorkPkskvnG)" stroke-opacity="1" stroke-linejoin="bevel" stroke-miterlimit="10" stroke-dasharray=""/><path fill="rgb(189,158,57)" stroke="rgb(255,255,255)" paint-order="fill" d="M 170.47311401367188 414.65985107421875 A 3.5 3.5 0 0 1 163.47311401367188 414.65985107421875 A 3.5 3.5 0 0 1 170.47311401367188 414.65985107421875" fill-opacity="1" clip-path="url(#vtorkPkskvnG)" stroke-opacity="1" stroke-linejoin="bevel" stroke-miterlimit="10" stroke-dasharray=""/><path fill="rgb(189,158,57)" stroke="rgb(255,255,255)" paint-order="fill" d="M 155.2218017578125 387.7983093261719 A 3.5 3.5 0 0 1 148.2218017578125 387.7983093261719 A 3.5 3.5 0 0 1 155.2218017578125 387.7983093261719" fill-opacity="1" clip-path="url(#vtorkPkskvnG)" stroke-opacity="1" stroke-linejoin="bevel" stroke-miterlimit="10" stroke-dasharray=""/><path fill="rgb(189,158,57)" stroke="rgb(255,255,255)" paint-order="fill" d="M 212.79547119140625 381.85284423828125 A 3.5 3.5 0 0 1 205.79547119140625 381.85284423828125 A 3.5 3.5 0 0 1 212.79547119140625 381.85284423828125" fill-opacity="1" clip-path="url(#vtorkPkskvnG)" stroke-opacity="1" stroke-linejoin="bevel" stroke-miterlimit="10" stroke-dasharray=""/><path fill="rgb(189,158,57)" stroke="rgb(255,255,255)" paint-order="fill" d="M 260.9444885253906 301.5489807128906 A 3.5 3.5 0 0 1 253.94448852539062 301.5489807128906 A 3.5 3.5 0 0 1 260.9444885253906 301.5489807128906" fill-opacity="1" clip-path="url(#vtorkPkskvnG)" stroke-opacity="1" stroke-linejoin="bevel" stroke-miterlimit="10" stroke-dasharray=""/><path fill="rgb(189,158,57)" stroke="rgb(255,255,255)" paint-order="fill" d="M 170.93292236328125 403.4193115234375 A 3.5 3.5 0 0 1 163.93292236328125 403.4193115234375 A 3.5 3.5 0 0 1 170.93292236328125 403.4193115234375" fill-opacity="1" clip-path="url(#vtorkPkskvnG)" stroke-opacity="1" stroke-linejoin="bevel" stroke-miterlimit="10" stroke-dasharray=""/><path fill="rgb(189,158,57)" stroke="rgb(255,255,255)" paint-order="fill" d="M 170.77049255371094 408.4971923828125 A 3.5 3.5 0 0 1 163.77049255371094 408.4971923828125 A 3.5 3.5 0 0 1 170.77049255371094 408.4971923828125" fill-opacity="1" clip-path="url(#vtorkPkskvnG)" stroke-opacity="1" stroke-linejoin="bevel" stroke-miterlimit="10" stroke-dasharray=""/><path fill="rgb(189,158,57)" stroke="rgb(255,255,255)" paint-order="fill" d="M 153.9054718017578 362.56195068359375 A 3.5 3.5 0 0 1 146.9054718017578 362.56195068359375 A 3.5 3.5 0 0 1 153.9054718017578 362.56195068359375" fill-opacity="1" clip-path="url(#vtorkPkskvnG)" stroke-opacity="1" stroke-linejoin="bevel" stroke-miterlimit="10" stroke-dasharray=""/><path fill="rgb(189,158,57)" stroke="rgb(255,255,255)" paint-order="fill" d="M 176.95240783691406 416.8932800292969 A 3.5 3.5 0 0 1 169.95240783691406 416.8932800292969 A 3.5 3.5 0 0 1 176.95240783691406 416.8932800292969" fill-opacity="1" clip-path="url(#vtorkPkskvnG)" stroke-opacity="1" stroke-linejoin="bevel" stroke-miterlimit="10" stroke-dasharray=""/><path fill="rgb(189,158,57)" stroke="rgb(255,255,255)" paint-order="fill" d="M 81.52471160888672 370.2650451660156 A 3.5 3.5 0 0 1 74.52471160888672 370.2650451660156 A 3.5 3.5 0 0 1 81.52471160888672 370.2650451660156" fill-opacity="1" clip-path="url(#vtorkPkskvnG)" stroke-opacity="1" stroke-linejoin="bevel" stroke-miterlimit="10" stroke-dasharray=""/><path fill="rgb(189,158,57)" stroke="rgb(255,255,255)" paint-order="fill" d="M 187.29603576660156 379.287841796875 A 3.5 3.5 0 0 1 180.29603576660156 379.287841796875 A 3.5 3.5 0 0 1 187.29603576660156 379.287841796875" fill-opacity="1" clip-path="url(#vtorkPkskvnG)" stroke-opacity="1" stroke-linejoin="bevel" stroke-miterlimit="10" stroke-dasharray=""/><path fill="rgb(189,158,57)" stroke="rgb(255,255,255)" paint-order="fill" d="M 71.89875793457031 295.8981628417969 A 3.5 3.5 0 0 1 64.89875793457031 295.8981628417969 A 3.5 3.5 0 0 1 71.89875793457031 295.8981628417969" fill-opacity="1" clip-path="url(#vtorkPkskvnG)" stroke-opacity="1" stroke-linejoin="bevel" stroke-miterlimit="10" stroke-dasharray=""/><path fill="rgb(189,158,57)" stroke="rgb(255,255,255)" paint-order="fill" d="M 170.70843505859375 407.85076904296875 A 3.5 3.5 0 0 1 163.70843505859375 407.85076904296875 A 3.5 3.5 0 0 1 170.70843505859375 407.85076904296875" fill-opacity="1" clip-path="url(#vtorkPkskvnG)" stroke-opacity="1" stroke-linejoin="bevel" stroke-miterlimit="10" stroke-dasharray=""/><path fill="rgb(189,158,57)" stroke="rgb(255,255,255)" paint-order="fill" d="M 167.23573303222656 401.4476013183594 A 3.5 3.5 0 0 1 160.23573303222656 401.4476013183594 A 3.5 3.5 0 0 1 167.23573303222656 401.4476013183594" fill-opacity="1" clip-path="url(#vtorkPkskvnG)" stroke-opacity="1" stroke-linejoin="bevel" stroke-miterlimit="10" stroke-dasharray=""/><path fill="rgb(189,158,57)" stroke="rgb(255,255,255)" paint-order="fill" d="M 170.58717346191406 407.72698974609375 A 3.5 3.5 0 0 1 163.58717346191406 407.72698974609375 A 3.5 3.5 0 0 1 170.58717346191406 407.72698974609375" fill-opacity="1" clip-path="url(#vtorkPkskvnG)" stroke-opacity="1" stroke-linejoin="bevel" stroke-miterlimit="10" stroke-dasharray=""/><path fill="rgb(189,158,57)" stroke="rgb(255,255,255)" paint-order="fill" d="M 160.15042114257812 363.48199462890625 A 3.5 3.5 0 0 1 153.15042114257812 363.48199462890625 A 3.5 3.5 0 0 1 160.15042114257812 363.48199462890625" fill-opacity="1" clip-path="url(#vtorkPkskvnG)" stroke-opacity="1" stroke-linejoin="bevel" stroke-miterlimit="10" stroke-dasharray=""/><path fill="rgb(189,158,57)" stroke="rgb(255,255,255)" paint-order="fill" d="M 190.40061950683594 395.4417419433594 A 3.5 3.5 0 0 1 183.40061950683594 395.4417419433594 A 3.5 3.5 0 0 1 190.40061950683594 395.4417419433594" fill-opacity="1" clip-path="url(#vtorkPkskvnG)" stroke-opacity="1" stroke-linejoin="bevel" stroke-miterlimit="10" stroke-dasharray=""/><path fill="rgb(189,158,57)" stroke="rgb(255,255,255)" paint-order="fill" d="M 186.68374633789062 409.6876525878906 A 3.5 3.5 0 0 1 179.68374633789062 409.6876525878906 A 3.5 3.5 0 0 1 186.68374633789062 409.6876525878906" fill-opacity="1" clip-path="url(#vtorkPkskvnG)" stroke-opacity="1" stroke-linejoin="bevel" stroke-miterlimit="10" stroke-dasharray=""/><path fill="rgb(189,158,57)" stroke="rgb(255,255,255)" paint-order="fill" d="M 154.54156494140625 393.1458435058594 A 3.5 3.5 0 0 1 147.54156494140625 393.1458435058594 A 3.5 3.5 0 0 1 154.54156494140625 393.1458435058594" fill-opacity="1" clip-path="url(#vtorkPkskvnG)" stroke-opacity="1" stroke-linejoin="bevel" stroke-miterlimit="10" stroke-dasharray=""/><path fill="rgb(189,158,57)" stroke="rgb(255,255,255)" paint-order="fill" d="M 180.31781005859375 414.82403564453125 A 3.5 3.5 0 0 1 173.31781005859375 414.82403564453125 A 3.5 3.5 0 0 1 180.31781005859375 414.82403564453125" fill-opacity="1" clip-path="url(#vtorkPkskvnG)" stroke-opacity="1" stroke-linejoin="bevel" stroke-miterlimit="10" stroke-dasharray=""/><path fill="rgb(189,158,57)" stroke="rgb(255,255,255)" paint-order="fill" d="M 167.77401733398438 403.3016052246094 A 3.5 3.5 0 0 1 160.77401733398438 403.3016052246094 A 3.5 3.5 0 0 1 167.77401733398438 403.3016052246094" fill-opacity="1" clip-path="url(#vtorkPkskvnG)" stroke-opacity="1" stroke-linejoin="bevel" stroke-miterlimit="10" stroke-dasharray=""/><path fill="rgb(189,158,57)" stroke="rgb(255,255,255)" paint-order="fill" d="M 181.38461303710938 414.72308349609375 A 3.5 3.5 0 0 1 174.38461303710938 414.72308349609375 A 3.5 3.5 0 0 1 181.38461303710938 414.72308349609375" fill-opacity="1" clip-path="url(#vtorkPkskvnG)" stroke-opacity="1" stroke-linejoin="bevel" stroke-miterlimit="10" stroke-dasharray=""/><path fill="rgb(189,158,57)" stroke="rgb(255,255,255)" paint-order="fill" d="M 192.3224334716797 371.17718505859375 A 3.5 3.5 0 0 1 185.3224334716797 371.17718505859375 A 3.5 3.5 0 0 1 192.3224334716797 371.17718505859375" fill-opacity="1" clip-path="url(#vtorkPkskvnG)" stroke-opacity="1" stroke-linejoin="bevel" stroke-miterlimit="10" stroke-dasharray=""/><path fill="rgb(189,158,57)" stroke="rgb(255,255,255)" paint-order="fill" d="M 239.92642211914062 342.1077575683594 A 3.5 3.5 0 0 1 232.92642211914062 342.1077575683594 A 3.5 3.5 0 0 1 239.92642211914062 342.1077575683594" fill-opacity="1" clip-path="url(#vtorkPkskvnG)" stroke-opacity="1" stroke-linejoin="bevel" stroke-miterlimit="10" stroke-dasharray=""/><path fill="rgb(189,158,57)" stroke="rgb(255,255,255)" paint-order="fill" d="M 203.24014282226562 346.00897216796875 A 3.5 3.5 0 0 1 196.24014282226562 346.00897216796875 A 3.5 3.5 0 0 1 203.24014282226562 346.00897216796875" fill-opacity="1" clip-path="url(#vtorkPkskvnG)" stroke-opacity="1" stroke-linejoin="bevel" stroke-miterlimit="10" stroke-dasharray=""/><path fill="rgb(189,158,57)" stroke="rgb(255,255,255)" paint-order="fill" d="M 449.10125732421875 274.5002136230469 A 3.5 3.5 0 0 1 442.10125732421875 274.5002136230469 A 3.5 3.5 0 0 1 449.10125732421875 274.5002136230469" fill-opacity="1" clip-path="url(#vtorkPkskvnG)" stroke-opacity="1" stroke-linejoin="bevel" stroke-miterlimit="10" stroke-dasharray=""/><path fill="rgb(189,158,57)" stroke="rgb(255,255,255)" paint-order="fill" d="M 157.771728515625 396.1924743652344 A 3.5 3.5 0 0 1 150.771728515625 396.1924743652344 A 3.5 3.5 0 0 1 157.771728515625 396.1924743652344" fill-opacity="1" clip-path="url(#vtorkPkskvnG)" stroke-opacity="1" stroke-linejoin="bevel" stroke-miterlimit="10" stroke-dasharray=""/><path fill="rgb(189,158,57)" stroke="rgb(255,255,255)" paint-order="fill" d="M 240.0299835205078 63.02764892578125 A 3.5 3.5 0 0 1 233.0299835205078 63.02764892578125 A 3.5 3.5 0 0 1 240.0299835205078 63.02764892578125" fill-opacity="1" clip-path="url(#vtorkPkskvnG)" stroke-opacity="1" stroke-linejoin="bevel" stroke-miterlimit="10" stroke-dasharray=""/><path fill="rgb(189,158,57)" stroke="rgb(255,255,255)" paint-order="fill" d="M 204.59466552734375 376.5892333984375 A 3.5 3.5 0 0 1 197.59466552734375 376.5892333984375 A 3.5 3.5 0 0 1 204.59466552734375 376.5892333984375" fill-opacity="1" clip-path="url(#vtorkPkskvnG)" stroke-opacity="1" stroke-linejoin="bevel" stroke-miterlimit="10" stroke-dasharray=""/><path fill="rgb(189,158,57)" stroke="rgb(255,255,255)" paint-order="fill" d="M 219.7625274658203 352.1156311035156 A 3.5 3.5 0 0 1 212.7625274658203 352.1156311035156 A 3.5 3.5 0 0 1 219.7625274658203 352.1156311035156" fill-opacity="1" clip-path="url(#vtorkPkskvnG)" stroke-opacity="1" stroke-linejoin="bevel" stroke-miterlimit="10" stroke-dasharray=""/><path fill="rgb(189,158,57)" stroke="rgb(255,255,255)" paint-order="fill" d="M 159.41229248046875 304.41851806640625 A 3.5 3.5 0 0 1 152.41229248046875 304.41851806640625 A 3.5 3.5 0 0 1 159.41229248046875 304.41851806640625" fill-opacity="1" clip-path="url(#vtorkPkskvnG)" stroke-opacity="1" stroke-linejoin="bevel" stroke-miterlimit="10" stroke-dasharray=""/><path fill="rgb(189,158,57)" stroke="rgb(255,255,255)" paint-order="fill" d="M 178.78439331054688 419.97235107421875 A 3.5 3.5 0 0 1 171.78439331054688 419.97235107421875 A 3.5 3.5 0 0 1 178.78439331054688 419.97235107421875" fill-opacity="1" clip-path="url(#vtorkPkskvnG)" stroke-opacity="1" stroke-linejoin="bevel" stroke-miterlimit="10" stroke-dasharray=""/><path fill="rgb(189,158,57)" stroke="rgb(255,255,255)" paint-order="fill" d="M 171.27549743652344 406.1829833984375 A 3.5 3.5 0 0 1 164.27549743652344 406.1829833984375 A 3.5 3.5 0 0 1 171.27549743652344 406.1829833984375" fill-opacity="1" clip-path="url(#vtorkPkskvnG)" stroke-opacity="1" stroke-linejoin="bevel" stroke-miterlimit="10" stroke-dasharray=""/><path fill="rgb(189,158,57)" stroke="rgb(255,255,255)" paint-order="fill" d="M 182.3453369140625 411.8873291015625 A 3.5 3.5 0 0 1 175.3453369140625 411.8873291015625 A 3.5 3.5 0 0 1 182.3453369140625 411.8873291015625" fill-opacity="1" clip-path="url(#vtorkPkskvnG)" stroke-opacity="1" stroke-linejoin="bevel" stroke-miterlimit="10" stroke-dasharray=""/><path fill="rgb(189,158,57)" stroke="rgb(255,255,255)" paint-order="fill" d="M 176.8867950439453 413.8412170410156 A 3.5 3.5 0 0 1 169.8867950439453 413.8412170410156 A 3.5 3.5 0 0 1 176.8867950439453 413.8412170410156" fill-opacity="1" clip-path="url(#vtorkPkskvnG)" stroke-opacity="1" stroke-linejoin="bevel" stroke-miterlimit="10" stroke-dasharray=""/><path fill="rgb(189,158,57)" stroke="rgb(255,255,255)" paint-order="fill" d="M 159.7927703857422 384.721923828125 A 3.5 3.5 0 0 1 152.7927703857422 384.721923828125 A 3.5 3.5 0 0 1 159.7927703857422 384.721923828125" fill-opacity="1" clip-path="url(#vtorkPkskvnG)" stroke-opacity="1" stroke-linejoin="bevel" stroke-miterlimit="10" stroke-dasharray=""/><path fill="rgb(189,158,57)" stroke="rgb(255,255,255)" paint-order="fill" d="M 136.568359375 330.10845947265625 A 3.5 3.5 0 0 1 129.568359375 330.10845947265625 A 3.5 3.5 0 0 1 136.568359375 330.10845947265625" fill-opacity="1" clip-path="url(#vtorkPkskvnG)" stroke-opacity="1" stroke-linejoin="bevel" stroke-miterlimit="10" stroke-dasharray=""/><path fill="rgb(189,158,57)" stroke="rgb(255,255,255)" paint-order="fill" d="M 189.46820068359375 385.8972473144531 A 3.5 3.5 0 0 1 182.46820068359375 385.8972473144531 A 3.5 3.5 0 0 1 189.46820068359375 385.8972473144531" fill-opacity="1" clip-path="url(#vtorkPkskvnG)" stroke-opacity="1" stroke-linejoin="bevel" stroke-miterlimit="10" stroke-dasharray=""/><path fill="rgb(189,158,57)" stroke="rgb(255,255,255)" paint-order="fill" d="M 168.06382751464844 404.1851501464844 A 3.5 3.5 0 0 1 161.06382751464844 404.1851501464844 A 3.5 3.5 0 0 1 168.06382751464844 404.1851501464844" fill-opacity="1" clip-path="url(#vtorkPkskvnG)" stroke-opacity="1" stroke-linejoin="bevel" stroke-miterlimit="10" stroke-dasharray=""/><path fill="rgb(189,158,57)" stroke="rgb(255,255,255)" paint-order="fill" d="M 186.8956298828125 410.4508972167969 A 3.5 3.5 0 0 1 179.8956298828125 410.4508972167969 A 3.5 3.5 0 0 1 186.8956298828125 410.4508972167969" fill-opacity="1" clip-path="url(#vtorkPkskvnG)" stroke-opacity="1" stroke-linejoin="bevel" stroke-miterlimit="10" stroke-dasharray=""/><path fill="rgb(0,128,0)" stroke="none" paint-order="stroke" d="M 43.5 27.5 L 125.08726501464844 27.5 L 125.08726501464844 455.5 L 43.5 455.5 L 43.5 27.5" fill-opacity="0.10196078431372549" clip-path="url(#LbgTgCfhwyhH)"/><path fill="rgb(0,128,0)" stroke="none" paint-order="stroke" d="M 224.68228149414062 27.5 L 470.5 27.5 L 470.5 455.5 L 224.68228149414062 455.5 L 224.68228149414062 27.5" fill-opacity="0.10196078431372549" clip-path="url(#zGDmNcZRBxOs)"/><path fill="none" stroke="rgb(0,0,0)" paint-order="fill" d="M 43.5 455.5 L 470.5 455.5" stroke-opacity="1" stroke-linejoin="bevel" stroke-miterlimit="10" stroke-dasharray=""/><path fill="none" stroke="rgb(0,0,0)" paint-order="fill" d="M 75.5 461.5 L 75.5 453.5 M 174.5 461.5 L 174.5 453.5 M 274.5 461.5 L 274.5 453.5 M 374.5 461.5 L 374.5 453.5" stroke-opacity="1" stroke-linejoin="bevel" stroke-miterlimit="10" stroke-dasharray=""/><path fill="none" stroke="rgb(0,0,0)" paint-order="fill" d="M 55.5 459.5 L 55.5 455.5 M 75.5 459.5 L 75.5 455.5 M 95.5 459.5 L 95.5 455.5 M 115.5 459.5 L 115.5 455.5 M 135.5 459.5 L 135.5 455.5 M 154.5 459.5 L 154.5 455.5 M 174.5 459.5 L 174.5 455.5 M 194.5 459.5 L 194.5 455.5 M 214.5 459.5 L 214.5 455.5 M 234.5 459.5 L 234.5 455.5 M 254.5 459.5 L 254.5 455.5 M 274.5 459.5 L 274.5 455.5 M 294.5 459.5 L 294.5 455.5 M 314.5 459.5 L 314.5 455.5 M 334.5 459.5 L 334.5 455.5 M 354.5 459.5 L 354.5 455.5 M 374.5 459.5 L 374.5 455.5 M 393.5 459.5 L 393.5 455.5 M 413.5 459.5 L 413.5 455.5 M 433.5 459.5 L 433.5 455.5 M 453.5 459.5 L 453.5 455.5" stroke-opacity="1" stroke-linejoin="bevel" stroke-miterlimit="10" stroke-dasharray=""/><text fill="rgb(68,68,68)" stroke="none" font-family="helvetica" font-size="11px" font-style="normal" font-weight="normal" text-decoration="normal" x="68.51900482177734" y="473.89013671875" text-anchor="start" dominant-baseline="alphabetic" transform="matrix(1, 0, 0, 1, 0.5, 0.5)" fill-opacity="1">−2</text><text fill="rgb(68,68,68)" stroke="none" font-family="helvetica" font-size="11px" font-style="normal" font-weight="normal" text-decoration="normal" x="171.32594299316406" y="473.89013671875" text-anchor="start" dominant-baseline="alphabetic" transform="matrix(1, 0, 0, 1, 0.5, 0.5)" fill-opacity="1">0</text><text fill="rgb(68,68,68)" stroke="none" font-family="helvetica" font-size="11px" font-style="normal" font-weight="normal" text-decoration="normal" x="270.92095947265625" y="473.89013671875" text-anchor="start" dominant-baseline="alphabetic" transform="matrix(1, 0, 0, 1, 0.5, 0.5)" fill-opacity="1">2</text><text fill="rgb(68,68,68)" stroke="none" font-family="helvetica" font-size="11px" font-style="normal" font-weight="normal" text-decoration="normal" x="370.5159606933594" y="473.89013671875" text-anchor="start" dominant-baseline="alphabetic" transform="matrix(1, 0, 0, 1, 0.5, 0.5)" fill-opacity="1">4</text><text fill="rgb(68,68,68)" stroke="none" font-family="helvetica" font-size="13px" font-style="italic" font-weight="normal" text-decoration="normal" x="204.1064453125" y="493.89013671875" text-anchor="start" dominant-baseline="alphabetic" transform="matrix(1, 0, 0, 1, 0.5, 0.5)" fill-opacity="1">log2 (fold-change)</text><path fill="none" stroke="rgb(0,0,0)" paint-order="fill" d="M 43.5 455.5 L 43.5 27.5" stroke-opacity="1" stroke-linejoin="bevel" stroke-miterlimit="10" stroke-dasharray=""/><path fill="none" stroke="rgb(0,0,0)" paint-order="fill" d="M 37.5 420.5 L 45.5 420.5 M 37.5 349.5 L 45.5 349.5 M 37.5 278.5 L 45.5 278.5 M 37.5 207.5 L 45.5 207.5 M 37.5 136.5 L 45.5 136.5 M 37.5 65.5 L 45.5 65.5" stroke-opacity="1" stroke-linejoin="bevel" stroke-miterlimit="10" stroke-dasharray=""/><path fill="none" stroke="rgb(0,0,0)" paint-order="fill" d="M 39.5 434.5 L 43.5 434.5 M 39.5 448.5 L 43.5 448.5 M 39.5 420.5 L 43.5 420.5 M 39.5 406.5 L 43.5 406.5 M 39.5 391.5 L 43.5 391.5 M 39.5 377.5 L 43.5 377.5 M 39.5 363.5 L 43.5 363.5 M 39.5 349.5 L 43.5 349.5 M 39.5 335.5 L 43.5 335.5 M 39.5 320.5 L 43.5 320.5 M 39.5 306.5 L 43.5 306.5 M 39.5 292.5 L 43.5 292.5 M 39.5 278.5 L 43.5 278.5 M 39.5 264.5 L 43.5 264.5 M 39.5 249.5 L 43.5 249.5 M 39.5 235.5 L 43.5 235.5 M 39.5 221.5 L 43.5 221.5 M 39.5 207.5 L 43.5 207.5 M 39.5 192.5 L 43.5 192.5 M 39.5 178.5 L 43.5 178.5 M 39.5 164.5 L 43.5 164.5 M 39.5 150.5 L 43.5 150.5 M 39.5 136.5 L 43.5 136.5 M 39.5 121.5 L 43.5 121.5 M 39.5 107.5 L 43.5 107.5 M 39.5 93.5 L 43.5 93.5 M 39.5 79.5 L 43.5 79.5 M 39.5 65.5 L 43.5 65.5 M 39.5 50.5 L 43.5 50.5 M 39.5 36.5 L 43.5 36.5" stroke-opacity="1" stroke-linejoin="bevel" stroke-miterlimit="10" stroke-dasharray=""/><text fill="rgb(68,68,68)" stroke="none" font-family="helvetica" font-size="11px" font-style="normal" font-weight="normal" text-decoration="normal" x="25.88232421875" y="423.78289794921875" text-anchor="start" dominant-baseline="alphabetic" transform="matrix(1, 0, 0, 1, 0.5, 0.5)" fill-opacity="1">0</text><text fill="rgb(68,68,68)" stroke="none" font-family="helvetica" font-size="11px" font-style="normal" font-weight="normal" text-decoration="normal" x="25.88232421875" y="352.72760009765625" text-anchor="start" dominant-baseline="alphabetic" transform="matrix(1, 0, 0, 1, 0.5, 0.5)" fill-opacity="1">1</text><text fill="rgb(68,68,68)" stroke="none" font-family="helvetica" font-size="11px" font-style="normal" font-weight="normal" text-decoration="normal" x="25.88232421875" y="281.67230224609375" text-anchor="start" dominant-baseline="alphabetic" transform="matrix(1, 0, 0, 1, 0.5, 0.5)" fill-opacity="1">2</text><text fill="rgb(68,68,68)" stroke="none" font-family="helvetica" font-size="11px" font-style="normal" font-weight="normal" text-decoration="normal" x="25.88232421875" y="210.61700439453125" text-anchor="start" dominant-baseline="alphabetic" transform="matrix(1, 0, 0, 1, 0.5, 0.5)" fill-opacity="1">3</text><text fill="rgb(68,68,68)" stroke="none" font-family="helvetica" font-size="11px" font-style="normal" font-weight="normal" text-decoration="normal" x="25.88232421875" y="139.56170654296875" text-anchor="start" dominant-baseline="alphabetic" transform="matrix(1, 0, 0, 1, 0.5, 0.5)" fill-opacity="1">4</text><text fill="rgb(68,68,68)" stroke="none" font-family="helvetica" font-size="11px" font-style="normal" font-weight="normal" text-decoration="normal" x="25.88232421875" y="68.50640869140625" text-anchor="start" dominant-baseline="alphabetic" transform="matrix(1, 0, 0, 1, 0.5, 0.5)" fill-opacity="1">5</text><text fill="rgb(68,68,68)" stroke="none" font-family="helvetica" font-size="13px" font-style="italic" font-weight="normal" text-decoration="normal" x="-27.639892578125" y="238" text-anchor="start" dominant-baseline="alphabetic" transform="matrix(6.123233995736766e-17, -1, 1, 6.123233995736766e-17, -222.61767578125, 259.38232421875)" fill-opacity="1">-log10 (p-value)</text><g clip-path="url(#HgyhWyrNTGcS)"><text fill="rgb(68,68,68)" stroke="none" font-family="helvetica" font-size="16px" font-style="normal" font-weight="normal" text-decoration="normal" x="241.0299835205078" y="53.52764892578125" text-anchor="start" dominant-baseline="alphabetic" transform="matrix(1, 0, 0, 1, 0.5, 0.5)" fill-opacity="1">LOC725051</text></g><text fill="rgb(68,68,68)" stroke="none" font-family="helvetica" font-size="13px" font-style="normal" font-weight="bold" text-decoration="normal" x="43" y="19" text-anchor="start" dominant-baseline="alphabetic" transform="matrix(1, 0, 0, 1, 0.5, 0.5)" fill-opacity="1">Hygiene-associated genes under BQCV infection</text></svg>